<?xml version="1.0" encoding="UTF-8"?>
<svg xmlns="http://www.w3.org/2000/svg" xmlns:xlink="http://www.w3.org/1999/xlink" width="32px" height="32px" viewBox="0 0 32 31" version="1.1">
<g id="surface1">
<path style=" stroke:none;fill-rule:nonzero;fill:rgb(9.411765%,9.803922%,9.019608%);fill-opacity:1;" d="M 15.421875 -0.0078125 C 15.464844 -0.0078125 15.507812 -0.0078125 15.550781 -0.0078125 C 15.6875 -0.0078125 15.824219 -0.0078125 15.960938 -0.0078125 C 15.996094 -0.0078125 15.996094 -0.0078125 16.03125 -0.0078125 C 16.71875 -0.0078125 17.394531 0 18.074219 0.0976562 C 18.136719 0.105469 18.136719 0.105469 18.195312 0.113281 C 19.535156 0.300781 20.839844 0.632812 22.09375 1.136719 C 22.144531 1.15625 22.144531 1.15625 22.195312 1.175781 C 23.847656 1.84375 25.371094 2.777344 26.695312 3.949219 C 26.742188 3.988281 26.785156 4.027344 26.832031 4.066406 C 27.027344 4.226562 27.203125 4.394531 27.382812 4.570312 C 27.433594 4.617188 27.484375 4.667969 27.535156 4.71875 C 27.714844 4.890625 27.886719 5.066406 28.050781 5.253906 C 28.082031 5.289062 28.113281 5.320312 28.144531 5.355469 C 28.433594 5.675781 28.695312 6.011719 28.953125 6.355469 C 28.96875 6.375 28.984375 6.394531 29 6.417969 C 29.410156 6.953125 29.769531 7.519531 30.09375 8.105469 C 30.117188 8.148438 30.117188 8.148438 30.140625 8.191406 C 31.277344 10.230469 31.996094 12.609375 32.007812 14.941406 C 32.007812 14.980469 32.007812 15.023438 32.007812 15.066406 C 32.007812 15.199219 32.007812 15.332031 32.007812 15.464844 C 32.007812 15.484375 32.007812 15.507812 32.007812 15.53125 C 32.007812 16.195312 32 16.851562 31.898438 17.511719 C 31.894531 17.550781 31.886719 17.589844 31.882812 17.628906 C 31.6875 18.925781 31.347656 20.191406 30.828125 21.402344 C 30.8125 21.433594 30.800781 21.46875 30.785156 21.5 C 30.097656 23.101562 29.132812 24.578125 27.925781 25.859375 C 27.882812 25.90625 27.84375 25.949219 27.800781 25.996094 C 27.636719 26.179688 27.460938 26.355469 27.28125 26.527344 C 27.230469 26.574219 27.179688 26.625 27.132812 26.675781 C 26.953125 26.847656 26.769531 27.015625 26.578125 27.171875 C 26.542969 27.203125 26.507812 27.234375 26.472656 27.265625 C 26.140625 27.542969 25.792969 27.796875 25.4375 28.050781 C 25.417969 28.0625 25.398438 28.078125 25.375 28.09375 C 24.824219 28.492188 24.238281 28.839844 23.632812 29.152344 C 23.589844 29.175781 23.589844 29.175781 23.542969 29.199219 C 21.4375 30.300781 18.984375 30.996094 16.578125 31.007812 C 16.535156 31.007812 16.492188 31.007812 16.449219 31.007812 C 16.3125 31.007812 16.175781 31.007812 16.039062 31.007812 C 16.015625 31.007812 15.992188 31.007812 15.96875 31.007812 C 15.28125 31.007812 14.605469 31 13.925781 30.902344 C 13.882812 30.898438 13.84375 30.890625 13.804688 30.886719 C 12.464844 30.699219 11.160156 30.367188 9.90625 29.863281 C 9.875 29.851562 9.839844 29.839844 9.804688 29.824219 C 8.152344 29.15625 6.628906 28.222656 5.304688 27.050781 C 5.257812 27.011719 5.214844 26.972656 5.167969 26.933594 C 4.972656 26.773438 4.796875 26.605469 4.617188 26.429688 C 4.566406 26.382812 4.515625 26.332031 4.464844 26.28125 C 4.285156 26.109375 4.113281 25.933594 3.949219 25.746094 C 3.917969 25.710938 3.886719 25.679688 3.855469 25.644531 C 3.566406 25.324219 3.304688 24.988281 3.046875 24.644531 C 3.03125 24.625 3.015625 24.605469 3 24.582031 C 2.589844 24.046875 2.230469 23.480469 1.90625 22.894531 C 1.890625 22.867188 1.875 22.835938 1.859375 22.808594 C 0.722656 20.769531 0.00390625 18.390625 -0.0078125 16.058594 C -0.0078125 16.019531 -0.0078125 15.976562 -0.0078125 15.933594 C -0.0078125 15.800781 -0.0078125 15.667969 -0.0078125 15.535156 C -0.0078125 15.515625 -0.0078125 15.492188 -0.0078125 15.46875 C -0.0078125 14.804688 0 14.148438 0.101562 13.488281 C 0.109375 13.429688 0.109375 13.429688 0.117188 13.371094 C 0.3125 12.074219 0.652344 10.808594 1.171875 9.597656 C 1.1875 9.566406 1.199219 9.53125 1.214844 9.5 C 1.902344 7.898438 2.867188 6.421875 4.074219 5.140625 C 4.117188 5.09375 4.15625 5.050781 4.199219 5.003906 C 4.363281 4.820312 4.539062 4.644531 4.71875 4.472656 C 4.769531 4.425781 4.820312 4.375 4.867188 4.324219 C 5.046875 4.152344 5.230469 3.984375 5.421875 3.828125 C 5.457031 3.796875 5.492188 3.765625 5.527344 3.734375 C 5.859375 3.457031 6.207031 3.203125 6.5625 2.949219 C 6.582031 2.9375 6.601562 2.921875 6.625 2.90625 C 7.175781 2.507812 7.761719 2.160156 8.367188 1.847656 C 8.398438 1.832031 8.425781 1.816406 8.457031 1.800781 C 10.5625 0.699219 13.015625 0.00390625 15.421875 -0.0078125 Z M 15.421875 -0.0078125 "/>
<path style=" stroke:none;fill-rule:nonzero;fill:rgb(42.352942%,81.568629%,81.960785%);fill-opacity:1;" d="M 15.421875 -0.0078125 C 15.464844 -0.0078125 15.507812 -0.0078125 15.550781 -0.0078125 C 15.6875 -0.0078125 15.824219 -0.0078125 15.960938 -0.0078125 C 15.996094 -0.0078125 15.996094 -0.0078125 16.03125 -0.0078125 C 16.71875 -0.0078125 17.394531 0 18.074219 0.0976562 C 18.136719 0.105469 18.136719 0.105469 18.195312 0.113281 C 19.535156 0.300781 20.839844 0.632812 22.09375 1.136719 C 22.144531 1.15625 22.144531 1.15625 22.195312 1.175781 C 23.847656 1.84375 25.371094 2.777344 26.695312 3.949219 C 26.742188 3.988281 26.785156 4.027344 26.832031 4.066406 C 27.027344 4.226562 27.203125 4.394531 27.382812 4.570312 C 27.433594 4.617188 27.484375 4.667969 27.535156 4.71875 C 27.714844 4.890625 27.886719 5.066406 28.050781 5.253906 C 28.082031 5.289062 28.113281 5.320312 28.144531 5.355469 C 28.433594 5.675781 28.695312 6.011719 28.953125 6.355469 C 28.96875 6.375 28.984375 6.394531 29 6.417969 C 29.410156 6.953125 29.769531 7.519531 30.09375 8.105469 C 30.117188 8.148438 30.117188 8.148438 30.140625 8.191406 C 31.277344 10.230469 31.996094 12.609375 32.007812 14.941406 C 32.007812 14.980469 32.007812 15.023438 32.007812 15.066406 C 32.007812 15.199219 32.007812 15.332031 32.007812 15.464844 C 32.007812 15.484375 32.007812 15.507812 32.007812 15.53125 C 32.007812 16.195312 32 16.851562 31.898438 17.511719 C 31.894531 17.550781 31.886719 17.589844 31.882812 17.628906 C 31.6875 18.925781 31.347656 20.191406 30.828125 21.402344 C 30.8125 21.433594 30.800781 21.46875 30.785156 21.5 C 30.097656 23.101562 29.132812 24.578125 27.925781 25.859375 C 27.882812 25.90625 27.84375 25.949219 27.800781 25.996094 C 27.636719 26.179688 27.460938 26.355469 27.28125 26.527344 C 27.230469 26.574219 27.179688 26.625 27.132812 26.675781 C 26.953125 26.847656 26.769531 27.015625 26.578125 27.171875 C 26.542969 27.203125 26.507812 27.234375 26.472656 27.265625 C 26.140625 27.542969 25.792969 27.796875 25.4375 28.050781 C 25.417969 28.0625 25.398438 28.078125 25.375 28.09375 C 24.824219 28.492188 24.238281 28.839844 23.632812 29.152344 C 23.589844 29.175781 23.589844 29.175781 23.542969 29.199219 C 21.4375 30.300781 18.984375 30.996094 16.578125 31.007812 C 16.535156 31.007812 16.492188 31.007812 16.449219 31.007812 C 16.3125 31.007812 16.175781 31.007812 16.039062 31.007812 C 16.015625 31.007812 15.992188 31.007812 15.96875 31.007812 C 15.28125 31.007812 14.605469 31 13.925781 30.902344 C 13.882812 30.898438 13.84375 30.890625 13.804688 30.886719 C 12.464844 30.699219 11.160156 30.367188 9.90625 29.863281 C 9.875 29.851562 9.839844 29.839844 9.804688 29.824219 C 8.152344 29.15625 6.628906 28.222656 5.304688 27.050781 C 5.257812 27.011719 5.214844 26.972656 5.167969 26.933594 C 4.972656 26.773438 4.796875 26.605469 4.617188 26.429688 C 4.566406 26.382812 4.515625 26.332031 4.464844 26.28125 C 4.285156 26.109375 4.113281 25.933594 3.949219 25.746094 C 3.917969 25.710938 3.886719 25.679688 3.855469 25.644531 C 3.566406 25.324219 3.304688 24.988281 3.046875 24.644531 C 3.03125 24.625 3.015625 24.605469 3 24.582031 C 2.589844 24.046875 2.230469 23.480469 1.90625 22.894531 C 1.890625 22.867188 1.875 22.835938 1.859375 22.808594 C 0.722656 20.769531 0.00390625 18.390625 -0.0078125 16.058594 C -0.0078125 16.019531 -0.0078125 15.976562 -0.0078125 15.933594 C -0.0078125 15.800781 -0.0078125 15.667969 -0.0078125 15.535156 C -0.0078125 15.515625 -0.0078125 15.492188 -0.0078125 15.46875 C -0.0078125 14.804688 0 14.148438 0.101562 13.488281 C 0.109375 13.429688 0.109375 13.429688 0.117188 13.371094 C 0.3125 12.074219 0.652344 10.808594 1.171875 9.597656 C 1.1875 9.566406 1.199219 9.53125 1.214844 9.5 C 1.902344 7.898438 2.867188 6.421875 4.074219 5.140625 C 4.117188 5.09375 4.15625 5.050781 4.199219 5.003906 C 4.363281 4.820312 4.539062 4.644531 4.71875 4.472656 C 4.769531 4.425781 4.820312 4.375 4.867188 4.324219 C 5.046875 4.152344 5.230469 3.984375 5.421875 3.828125 C 5.457031 3.796875 5.492188 3.765625 5.527344 3.734375 C 5.859375 3.457031 6.207031 3.203125 6.5625 2.949219 C 6.582031 2.9375 6.601562 2.921875 6.625 2.90625 C 7.175781 2.507812 7.761719 2.160156 8.367188 1.847656 C 8.398438 1.832031 8.425781 1.816406 8.457031 1.800781 C 10.5625 0.699219 13.015625 0.00390625 15.421875 -0.0078125 Z M 13.957031 2.238281 C 13.933594 2.238281 13.910156 2.242188 13.886719 2.246094 C 12.265625 2.4375 10.515625 2.777344 9.171875 3.730469 C 9.144531 3.75 9.113281 3.769531 9.085938 3.789062 C 8.804688 3.996094 8.546875 4.230469 8.300781 4.476562 C 8.144531 4.414062 7.992188 4.351562 7.835938 4.289062 C 7.597656 4.195312 7.390625 4.171875 7.136719 4.171875 C 7.105469 4.171875 7.074219 4.171875 7.042969 4.171875 C 6.523438 4.171875 6.113281 4.394531 5.75 4.738281 C 5.335938 5.152344 5.074219 5.613281 5.074219 6.199219 C 5.085938 6.664062 5.339844 7.003906 5.660156 7.335938 C 5.898438 7.554688 6.253906 7.816406 6.59375 7.816406 C 6.582031 7.855469 6.582031 7.855469 6.570312 7.898438 C 6.457031 8.308594 6.390625 8.726562 6.328125 9.144531 C 6.324219 9.167969 6.320312 9.191406 6.316406 9.214844 C 6.292969 9.363281 6.273438 9.511719 6.257812 9.664062 C 6.257812 9.691406 6.253906 9.722656 6.25 9.753906 C 6.109375 11.21875 6.171875 12.707031 6.328125 14.171875 C 6.300781 14.164062 6.277344 14.15625 6.253906 14.148438 C 6.027344 14.070312 6.027344 14.070312 5.789062 14.105469 C 5.636719 14.40625 5.796875 14.902344 5.890625 15.207031 C 5.933594 15.316406 5.976562 15.421875 6.027344 15.527344 C 6.058594 15.597656 6.058594 15.597656 6.058594 15.664062 C 5.882812 15.753906 5.707031 15.808594 5.515625 15.867188 C 4.976562 16.035156 4.515625 16.277344 4.214844 16.761719 C 4.152344 16.90625 4.167969 17.066406 4.183594 17.21875 C 4.238281 17.320312 4.285156 17.382812 4.371094 17.457031 C 4.425781 17.519531 4.445312 17.574219 4.476562 17.648438 C 4.546875 17.816406 4.65625 17.910156 4.820312 17.996094 C 5.144531 18.121094 5.453125 18.082031 5.769531 17.960938 C 5.859375 17.929688 5.929688 17.929688 6.023438 17.933594 C 6.019531 17.964844 6.015625 17.996094 6.011719 18.027344 C 5.875 18.964844 5.785156 19.878906 5.78125 20.824219 C 5.78125 20.859375 5.78125 20.898438 5.78125 20.933594 C 5.777344 21.039062 5.777344 21.144531 5.777344 21.25 C 5.777344 21.28125 5.777344 21.3125 5.777344 21.34375 C 5.777344 21.527344 5.796875 21.664062 5.890625 21.824219 C 5.925781 21.839844 5.960938 21.859375 5.996094 21.878906 C 6.109375 21.964844 6.109375 21.988281 6.128906 22.121094 C 6.136719 22.191406 6.140625 22.261719 6.144531 22.328125 C 6.152344 22.402344 6.160156 22.476562 6.167969 22.550781 C 6.171875 22.585938 6.175781 22.625 6.179688 22.660156 C 6.207031 22.871094 6.257812 23.078125 6.308594 23.28125 C 6.324219 23.34375 6.339844 23.40625 6.355469 23.46875 C 6.609375 24.492188 7.222656 25.382812 8 26.105469 C 7.898438 26.167969 7.898438 26.167969 7.816406 26.210938 C 7.328125 26.46875 6.863281 26.871094 6.695312 27.402344 C 6.664062 27.59375 6.664062 27.761719 6.769531 27.9375 C 6.84375 28.035156 6.925781 28.105469 7.027344 28.179688 C 7.097656 28.234375 7.160156 28.292969 7.226562 28.351562 C 7.410156 28.496094 7.542969 28.527344 7.773438 28.523438 C 8.339844 28.433594 8.878906 27.964844 9.328125 27.644531 C 9.398438 27.597656 9.46875 27.546875 9.539062 27.496094 C 9.5625 27.480469 9.585938 27.464844 9.609375 27.449219 C 9.632812 27.433594 9.65625 27.417969 9.679688 27.402344 C 9.710938 27.382812 9.710938 27.382812 9.742188 27.359375 C 9.859375 27.316406 9.949219 27.359375 10.0625 27.402344 C 10.09375 27.414062 10.125 27.425781 10.15625 27.441406 C 10.691406 27.660156 11.222656 27.839844 11.78125 27.984375 C 11.8125 27.992188 11.84375 28 11.875 28.007812 C 12.671875 28.207031 13.507812 28.324219 14.328125 28.375 C 14.347656 28.375 14.367188 28.375 14.390625 28.378906 C 14.851562 28.40625 15.3125 28.414062 15.773438 28.414062 C 15.808594 28.417969 15.847656 28.417969 15.882812 28.417969 C 16.855469 28.417969 17.828125 28.34375 18.777344 28.144531 C 18.8125 28.140625 18.847656 28.132812 18.882812 28.125 C 19.808594 27.933594 20.753906 27.6875 21.582031 27.230469 C 21.675781 27.199219 21.730469 27.210938 21.824219 27.238281 C 21.898438 27.285156 21.96875 27.328125 22.042969 27.378906 C 22.0625 27.394531 22.082031 27.410156 22.105469 27.425781 C 22.246094 27.523438 22.378906 27.628906 22.511719 27.742188 C 23.109375 28.25 23.109375 28.25 23.855469 28.421875 C 23.992188 28.394531 24.089844 28.324219 24.199219 28.242188 C 24.230469 28.226562 24.257812 28.207031 24.289062 28.1875 C 24.460938 28.074219 24.609375 27.972656 24.703125 27.789062 C 24.726562 27.5 24.707031 27.269531 24.570312 27.011719 C 24.554688 26.984375 24.542969 26.960938 24.53125 26.933594 C 24.324219 26.558594 23.953125 26.226562 23.566406 26.039062 C 23.492188 26.015625 23.492188 26.015625 23.429688 26.007812 C 23.445312 25.992188 23.457031 25.980469 23.46875 25.964844 C 23.535156 25.890625 23.601562 25.820312 23.664062 25.746094 C 23.695312 25.714844 23.722656 25.683594 23.75 25.652344 C 24.628906 24.679688 25.101562 23.476562 25.269531 22.203125 C 25.28125 22.140625 25.28125 22.140625 25.289062 22.082031 C 25.296875 22.003906 25.308594 21.925781 25.316406 21.851562 C 25.351562 21.558594 25.351562 21.558594 25.472656 21.464844 C 25.523438 21.433594 25.523438 21.433594 25.574219 21.402344 C 25.710938 21.144531 25.710938 20.898438 25.714844 20.613281 C 25.714844 20.558594 25.714844 20.558594 25.714844 20.503906 C 25.714844 20.386719 25.714844 20.269531 25.714844 20.152344 C 25.714844 20.113281 25.714844 20.074219 25.714844 20.03125 C 25.714844 19.515625 25.707031 19.003906 25.660156 18.492188 C 25.660156 18.464844 25.65625 18.441406 25.65625 18.417969 C 25.628906 18.144531 25.597656 17.875 25.539062 17.609375 C 25.5625 17.613281 25.589844 17.621094 25.613281 17.628906 C 25.972656 17.734375 26.421875 17.773438 26.78125 17.640625 C 27.089844 17.476562 27.3125 17.191406 27.414062 16.863281 C 27.449219 16.664062 27.410156 16.519531 27.300781 16.351562 C 26.878906 15.792969 26.144531 15.554688 25.472656 15.402344 C 25.484375 15.378906 25.492188 15.355469 25.503906 15.332031 C 25.671875 14.933594 25.785156 14.527344 25.789062 14.09375 C 25.792969 14.070312 25.792969 14.046875 25.792969 14.023438 C 25.792969 13.917969 25.78125 13.855469 25.71875 13.765625 C 25.617188 13.703125 25.558594 13.703125 25.441406 13.707031 C 25.40625 13.707031 25.375 13.707031 25.339844 13.707031 C 25.246094 13.714844 25.160156 13.730469 25.070312 13.75 C 25.070312 13.726562 25.070312 13.707031 25.070312 13.683594 C 25.066406 13.453125 25.0625 13.222656 25.058594 12.992188 C 25.058594 12.910156 25.054688 12.824219 25.054688 12.738281 C 25.039062 11.59375 25.039062 11.59375 24.960938 10.449219 C 24.957031 10.414062 24.957031 10.414062 24.953125 10.382812 C 24.855469 9.359375 24.691406 8.359375 24.433594 7.359375 C 24.460938 7.347656 24.484375 7.335938 24.507812 7.324219 C 25.078125 7.023438 25.519531 6.5625 25.730469 5.960938 C 25.847656 5.546875 25.785156 5.097656 25.589844 4.71875 C 25.328125 4.285156 24.898438 3.890625 24.402344 3.730469 C 23.832031 3.582031 23.394531 3.605469 22.875 3.894531 C 22.753906 3.960938 22.636719 4.035156 22.527344 4.117188 C 22.515625 4.089844 22.515625 4.089844 22.503906 4.0625 C 22.058594 3.292969 20.6875 2.828125 19.882812 2.59375 C 19.386719 2.457031 18.886719 2.339844 18.375 2.269531 C 18.347656 2.265625 18.320312 2.261719 18.289062 2.257812 C 18.09375 2.230469 17.898438 2.207031 17.703125 2.183594 C 17.640625 2.175781 17.582031 2.167969 17.519531 2.160156 C 16.339844 2.019531 15.132812 2.097656 13.957031 2.238281 Z M 13.957031 2.238281 "/>
<path style=" stroke:none;fill-rule:nonzero;fill:rgb(42.352942%,81.568629%,82.352942%);fill-opacity:1;" d="M 16.101562 2.355469 C 16.132812 2.355469 16.160156 2.355469 16.191406 2.355469 C 17.109375 2.355469 18.046875 2.429688 18.945312 2.625 C 18.976562 2.632812 19.007812 2.640625 19.042969 2.648438 C 19.675781 2.785156 20.269531 2.972656 20.855469 3.242188 C 20.890625 3.257812 20.925781 3.273438 20.960938 3.289062 C 22.515625 4.027344 23.5 5.527344 24.066406 7.070312 C 24.402344 8.023438 24.554688 9.019531 24.667969 10.019531 C 24.671875 10.050781 24.675781 10.082031 24.679688 10.113281 C 24.703125 10.308594 24.722656 10.503906 24.738281 10.699219 C 24.738281 10.738281 24.742188 10.773438 24.746094 10.8125 C 24.828125 11.820312 24.808594 12.835938 24.804688 13.847656 C 24.042969 14.09375 23.277344 14.296875 22.496094 14.476562 C 22.449219 14.488281 22.402344 14.5 22.355469 14.511719 C 20.933594 14.84375 19.5 15.074219 18.042969 15.214844 C 18.015625 15.21875 17.992188 15.21875 17.964844 15.222656 C 17.796875 15.238281 17.632812 15.253906 17.46875 15.265625 C 17.402344 15.269531 17.335938 15.277344 17.269531 15.28125 C 16.585938 15.339844 15.90625 15.347656 15.21875 15.34375 C 15.109375 15.34375 15 15.34375 14.890625 15.34375 C 14.050781 15.34375 13.214844 15.328125 12.378906 15.25 C 12.347656 15.246094 12.320312 15.242188 12.289062 15.238281 C 8.394531 14.871094 8.394531 14.871094 6.628906 14.300781 C 6.574219 14.023438 6.539062 13.746094 6.515625 13.464844 C 6.507812 13.398438 6.503906 13.328125 6.496094 13.261719 C 6.484375 13.132812 6.472656 13.003906 6.460938 12.875 C 6.457031 12.839844 6.453125 12.804688 6.449219 12.765625 C 6.417969 12.398438 6.421875 12.027344 6.421875 11.660156 C 6.421875 11.625 6.421875 11.589844 6.421875 11.554688 C 6.421875 10.089844 6.53125 8.5625 7.027344 7.167969 C 7.039062 7.144531 7.046875 7.121094 7.054688 7.097656 C 7.625 5.496094 8.679688 4.164062 10.257812 3.414062 C 12.027344 2.597656 14.164062 2.363281 16.101562 2.355469 Z M 16.101562 2.355469 "/>
<path style=" stroke:none;fill-rule:nonzero;fill:rgb(42.352942%,81.568629%,82.352942%);fill-opacity:1;" d="M 25.070312 21.757812 C 25.113281 22.589844 24.78125 23.550781 24.402344 24.289062 C 24.386719 24.320312 24.386719 24.320312 24.367188 24.351562 C 23.988281 25.101562 23.40625 25.753906 22.726562 26.265625 C 22.703125 26.285156 22.703125 26.285156 22.675781 26.308594 C 21.058594 27.535156 18.945312 27.988281 16.9375 28.144531 C 16.902344 28.148438 16.871094 28.152344 16.835938 28.15625 C 16.5 28.179688 16.167969 28.183594 15.832031 28.183594 C 15.804688 28.183594 15.773438 28.183594 15.742188 28.183594 C 15.203125 28.183594 14.664062 28.160156 14.125 28.113281 C 14.085938 28.109375 14.046875 28.109375 14.007812 28.105469 C 11.742188 27.917969 9.324219 27.203125 7.746094 25.527344 C 7.671875 25.441406 7.601562 25.351562 7.53125 25.261719 C 7.519531 25.242188 7.503906 25.226562 7.492188 25.210938 C 6.925781 24.496094 6.617188 23.683594 6.453125 22.800781 C 6.445312 22.769531 6.441406 22.738281 6.433594 22.707031 C 6.398438 22.507812 6.386719 22.316406 6.394531 22.113281 C 6.414062 22.125 6.429688 22.132812 6.449219 22.140625 C 7.496094 22.582031 8.554688 22.882812 9.671875 23.085938 C 9.703125 23.09375 9.734375 23.097656 9.765625 23.105469 C 10.886719 23.3125 12.015625 23.453125 13.152344 23.546875 C 13.179688 23.550781 13.207031 23.550781 13.234375 23.554688 C 13.921875 23.609375 14.605469 23.613281 15.292969 23.613281 C 15.339844 23.613281 15.386719 23.613281 15.433594 23.613281 C 16.070312 23.613281 16.703125 23.605469 17.335938 23.550781 C 17.433594 23.542969 17.53125 23.535156 17.628906 23.53125 C 18.621094 23.464844 19.617188 23.320312 20.59375 23.136719 C 20.675781 23.121094 20.761719 23.105469 20.847656 23.089844 C 22.207031 22.847656 23.5 22.4375 24.75 21.871094 C 24.78125 21.855469 24.816406 21.839844 24.847656 21.824219 C 24.875 21.8125 24.90625 21.800781 24.933594 21.785156 C 25.003906 21.757812 25.003906 21.757812 25.070312 21.757812 Z M 25.070312 21.757812 "/>
<path style=" stroke:none;fill-rule:nonzero;fill:rgb(99.607843%,99.607843%,99.607843%);fill-opacity:1;" d="M 21.078125 4.386719 C 21.582031 4.804688 21.957031 5.378906 22.023438 6.03125 C 22.066406 6.746094 21.929688 7.375 21.457031 7.945312 C 21.441406 7.964844 21.425781 7.984375 21.410156 8.003906 C 20.964844 8.558594 20.203125 8.835938 19.515625 8.949219 C 18.507812 9.003906 17.59375 8.886719 16.8125 8.222656 C 16.304688 7.75 16.046875 7.183594 16.019531 6.507812 C 16.007812 5.882812 16.230469 5.261719 16.667969 4.800781 C 16.683594 4.785156 16.699219 4.769531 16.710938 4.753906 C 16.933594 4.523438 17.152344 4.335938 17.4375 4.183594 C 17.46875 4.167969 17.5 4.148438 17.53125 4.132812 C 18.636719 3.558594 20.082031 3.625 21.078125 4.386719 Z M 21.078125 4.386719 "/>
<path style=" stroke:none;fill-rule:nonzero;fill:rgb(99.607843%,99.607843%,99.607843%);fill-opacity:1;" d="M 11.457031 4.078125 C 12.210938 4.054688 13 4.28125 13.566406 4.777344 C 14.046875 5.21875 14.375 5.769531 14.398438 6.421875 C 14.414062 7.167969 14.203125 7.871094 13.664062 8.421875 C 13.054688 9.027344 12.25 9.277344 11.394531 9.285156 C 10.550781 9.285156 9.773438 9.003906 9.164062 8.429688 C 8.738281 8.007812 8.554688 7.429688 8.558594 6.851562 C 8.558594 6.820312 8.558594 6.789062 8.558594 6.757812 C 8.570312 6.0625 8.847656 5.492188 9.339844 4.992188 C 9.355469 4.972656 9.375 4.953125 9.394531 4.933594 C 9.914062 4.382812 10.707031 4.121094 11.457031 4.078125 Z M 11.457031 4.078125 "/>
<path style=" stroke:none;fill-rule:nonzero;fill:rgb(9.019608%,9.411765%,9.019608%);fill-opacity:1;" d="M 16.042969 2.101562 C 16.074219 2.097656 16.109375 2.097656 16.140625 2.097656 C 18.238281 2.101562 20.578125 2.4375 22.226562 3.792969 C 22.269531 3.828125 22.269531 3.828125 22.3125 3.867188 C 22.472656 3.996094 22.472656 3.996094 22.527344 4.054688 C 22.527344 4.074219 22.527344 4.097656 22.527344 4.117188 C 22.554688 4.097656 22.585938 4.078125 22.613281 4.058594 C 23.101562 3.742188 23.546875 3.570312 24.140625 3.667969 C 24.738281 3.792969 25.203125 4.148438 25.539062 4.636719 C 25.789062 5.074219 25.851562 5.550781 25.707031 6.035156 C 25.597656 6.332031 25.417969 6.574219 25.203125 6.808594 C 25.1875 6.828125 25.171875 6.847656 25.152344 6.871094 C 24.960938 7.074219 24.691406 7.238281 24.433594 7.359375 C 24.441406 7.390625 24.449219 7.417969 24.457031 7.445312 C 24.96875 9.46875 24.96875 9.46875 24.871094 10.148438 C 24.820312 10.183594 24.820312 10.183594 24.769531 10.214844 C 24.75 10.308594 24.75 10.308594 24.746094 10.414062 C 24.746094 10.449219 24.742188 10.484375 24.738281 10.519531 C 24.738281 10.5625 24.738281 10.5625 24.738281 10.605469 C 24.726562 10.605469 24.714844 10.605469 24.703125 10.605469 C 24.699219 10.574219 24.695312 10.542969 24.691406 10.511719 C 24.441406 8.152344 23.921875 5.519531 21.933594 3.90625 C 21.640625 3.683594 21.316406 3.507812 20.988281 3.339844 C 20.964844 3.328125 20.945312 3.316406 20.921875 3.308594 C 19.933594 2.804688 18.824219 2.59375 17.726562 2.476562 C 17.621094 2.464844 17.519531 2.453125 17.417969 2.441406 C 16.523438 2.34375 15.589844 2.367188 14.699219 2.453125 C 14.589844 2.464844 14.480469 2.472656 14.371094 2.484375 C 12.933594 2.601562 11.441406 2.886719 10.140625 3.503906 C 10.121094 3.511719 10.097656 3.523438 10.078125 3.53125 C 9.328125 3.886719 8.6875 4.402344 8.199219 5.058594 C 8.1875 5.078125 8.171875 5.09375 8.160156 5.113281 C 7.738281 5.6875 7.390625 6.3125 7.128906 6.972656 C 7.117188 7.007812 7.117188 7.007812 7.101562 7.042969 C 6.628906 8.222656 6.515625 9.578125 6.460938 10.832031 C 6.449219 10.832031 6.4375 10.832031 6.425781 10.832031 C 6.414062 10.90625 6.40625 10.980469 6.394531 11.058594 C 6.382812 11.058594 6.371094 11.058594 6.359375 11.058594 C 6.347656 11.003906 6.335938 10.949219 6.328125 10.894531 C 6.304688 10.917969 6.28125 10.9375 6.257812 10.960938 C 6.226562 10.433594 6.226562 9.925781 6.292969 9.402344 C 6.296875 9.375 6.300781 9.347656 6.304688 9.316406 C 6.453125 8.089844 6.453125 8.089844 6.59375 7.816406 C 6.566406 7.8125 6.535156 7.808594 6.503906 7.804688 C 6.023438 7.710938 5.605469 7.335938 5.332031 6.957031 C 5.28125 6.875 5.234375 6.796875 5.1875 6.710938 C 5.175781 6.691406 5.164062 6.667969 5.152344 6.648438 C 5.015625 6.332031 5.046875 5.914062 5.15625 5.59375 C 5.414062 4.988281 5.890625 4.507812 6.511719 4.246094 C 6.976562 4.082031 7.558594 4.148438 8 4.34375 C 8.046875 4.371094 8.09375 4.398438 8.140625 4.425781 C 8.171875 4.441406 8.203125 4.457031 8.234375 4.476562 C 8.371094 4.433594 8.457031 4.328125 8.550781 4.230469 C 10.128906 2.667969 12.695312 2.339844 14.832031 2.144531 C 14.886719 2.140625 14.945312 2.136719 15.003906 2.128906 C 15.347656 2.101562 15.695312 2.101562 16.042969 2.101562 Z M 16.042969 2.101562 "/>
<path style=" stroke:none;fill-rule:nonzero;fill:rgb(9.803922%,9.803922%,9.411765%);fill-opacity:1;" d="M 16.300781 8.332031 C 16.425781 8.449219 16.558594 8.585938 16.574219 8.761719 C 16.574219 8.824219 16.570312 8.886719 16.570312 8.949219 C 16.597656 8.953125 16.597656 8.953125 16.625 8.957031 C 17.046875 9.019531 17.53125 9.210938 17.800781 9.542969 C 17.988281 9.804688 18 10.035156 17.976562 10.34375 C 17.914062 10.570312 17.738281 10.746094 17.539062 10.875 C 17.324219 10.984375 17.109375 10.972656 16.871094 10.960938 C 16.871094 10.980469 16.871094 11 16.871094 11.019531 C 16.875 11.113281 16.875 11.203125 16.875 11.296875 C 16.878906 11.328125 16.878906 11.359375 16.878906 11.390625 C 16.882812 11.707031 16.832031 11.972656 16.601562 12.203125 C 16.394531 12.378906 16.207031 12.410156 15.933594 12.398438 C 15.726562 12.375 15.589844 12.257812 15.429688 12.128906 C 15.425781 12.144531 15.417969 12.164062 15.410156 12.183594 C 15.332031 12.3125 15.207031 12.367188 15.070312 12.425781 C 14.832031 12.480469 14.617188 12.472656 14.394531 12.363281 C 14.179688 12.230469 14.078125 12.042969 14.023438 11.804688 C 14.015625 11.667969 14.015625 11.53125 14.019531 11.394531 C 14.019531 11.34375 14.019531 11.34375 14.019531 11.289062 C 14.019531 11.199219 14.023438 11.113281 14.023438 11.023438 C 13.988281 11.027344 13.949219 11.027344 13.910156 11.03125 C 13.355469 11.046875 13.355469 11.046875 13.132812 10.84375 C 12.910156 10.613281 12.867188 10.410156 12.875 10.097656 C 12.902344 9.824219 13.050781 9.621094 13.253906 9.4375 C 13.714844 9.078125 13.714844 9.078125 13.957031 9.078125 C 13.953125 9.046875 13.953125 9.019531 13.949219 8.984375 C 13.949219 8.78125 14.054688 8.609375 14.191406 8.457031 C 14.722656 7.957031 15.703125 7.914062 16.300781 8.332031 Z M 16.300781 8.332031 "/>
<path style=" stroke:none;fill-rule:nonzero;fill:rgb(9.019608%,9.019608%,8.627451%);fill-opacity:1;" d="M 25.136719 22.601562 C 25.148438 22.601562 25.160156 22.601562 25.171875 22.601562 C 25.167969 22.960938 25.046875 23.300781 24.9375 23.640625 C 24.929688 23.660156 24.921875 23.683594 24.914062 23.707031 C 24.65625 24.476562 24.210938 25.140625 23.660156 25.738281 C 23.582031 25.824219 23.503906 25.914062 23.429688 26.007812 C 23.460938 26.015625 23.488281 26.023438 23.519531 26.03125 C 24.007812 26.203125 24.414062 26.675781 24.640625 27.117188 C 24.726562 27.328125 24.730469 27.5625 24.703125 27.789062 C 24.601562 28.003906 24.40625 28.128906 24.199219 28.242188 C 24.171875 28.265625 24.171875 28.265625 24.144531 28.285156 C 23.992188 28.390625 23.875 28.433594 23.6875 28.421875 C 23.261719 28.347656 22.941406 28.078125 22.625 27.8125 C 22.453125 27.671875 22.277344 27.539062 22.09375 27.414062 C 22.066406 27.394531 22.042969 27.378906 22.019531 27.363281 C 21.851562 27.242188 21.851562 27.242188 21.65625 27.207031 C 21.5625 27.242188 21.476562 27.285156 21.386719 27.328125 C 20.703125 27.65625 19.984375 27.878906 19.246094 28.050781 C 19.214844 28.058594 19.179688 28.0625 19.148438 28.074219 C 18.574219 28.203125 17.992188 28.28125 17.40625 28.339844 C 17.367188 28.34375 17.367188 28.34375 17.324219 28.351562 C 16.828125 28.402344 16.335938 28.417969 15.839844 28.414062 C 15.800781 28.414062 15.765625 28.414062 15.726562 28.414062 C 13.835938 28.40625 11.871094 28.210938 10.136719 27.425781 C 10.109375 27.414062 10.082031 27.402344 10.054688 27.386719 C 10.027344 27.378906 10.003906 27.367188 9.980469 27.355469 C 9.867188 27.324219 9.78125 27.347656 9.679688 27.402344 C 9.660156 27.414062 9.640625 27.429688 9.621094 27.441406 C 9.597656 27.457031 9.574219 27.472656 9.550781 27.488281 C 9.515625 27.515625 9.515625 27.515625 9.480469 27.539062 C 9.457031 27.558594 9.429688 27.574219 9.40625 27.59375 C 9.328125 27.648438 9.25 27.703125 9.171875 27.757812 C 8.085938 28.519531 8.085938 28.519531 7.679688 28.515625 C 7.640625 28.515625 7.605469 28.515625 7.566406 28.515625 C 7.398438 28.496094 7.292969 28.40625 7.167969 28.296875 C 7.101562 28.238281 7.035156 28.183594 6.964844 28.128906 C 6.808594 28.003906 6.714844 27.90625 6.679688 27.707031 C 6.65625 27.375 6.800781 27.109375 7.003906 26.855469 C 7.074219 26.773438 7.152344 26.695312 7.230469 26.621094 C 7.261719 26.589844 7.261719 26.589844 7.292969 26.558594 C 7.449219 26.417969 7.625 26.316406 7.8125 26.214844 C 7.902344 26.167969 7.902344 26.167969 8 26.105469 C 7.972656 26.078125 7.945312 26.054688 7.917969 26.027344 C 7.152344 25.308594 6.34375 24.203125 6.289062 23.132812 C 6.292969 23.054688 6.292969 23.054688 6.328125 22.957031 C 6.394531 22.9375 6.394531 22.9375 6.460938 22.925781 C 6.460938 22.980469 6.460938 23.03125 6.460938 23.085938 C 6.480469 23.085938 6.503906 23.085938 6.527344 23.085938 C 6.539062 23.128906 6.550781 23.171875 6.558594 23.210938 C 6.878906 24.367188 7.480469 25.402344 8.46875 26.136719 C 8.5 26.160156 8.535156 26.1875 8.566406 26.214844 C 9.3125 26.789062 10.179688 27.199219 11.078125 27.496094 C 11.105469 27.507812 11.132812 27.515625 11.160156 27.527344 C 12.621094 28.03125 14.242188 28.15625 15.78125 28.152344 C 15.824219 28.152344 15.824219 28.152344 15.871094 28.152344 C 16.695312 28.152344 17.496094 28.078125 18.308594 27.953125 C 18.335938 27.949219 18.363281 27.945312 18.390625 27.941406 C 20.464844 27.613281 22.625 26.773438 23.894531 25.074219 C 24.394531 24.386719 24.675781 23.632812 24.902344 22.828125 C 24.925781 22.839844 24.949219 22.851562 24.972656 22.859375 C 24.972656 22.882812 24.972656 22.902344 24.972656 22.925781 C 25.019531 22.910156 25.019531 22.910156 25.070312 22.894531 C 25.097656 22.824219 25.097656 22.824219 25.109375 22.746094 C 25.117188 22.71875 25.121094 22.691406 25.128906 22.664062 C 25.128906 22.644531 25.132812 22.621094 25.136719 22.601562 Z M 25.136719 22.601562 "/>
<path style=" stroke:none;fill-rule:nonzero;fill:rgb(99.215686%,99.215686%,99.215686%);fill-opacity:1;" d="M 20.1875 17.246094 C 20.214844 17.246094 20.242188 17.246094 20.273438 17.246094 C 20.316406 17.246094 20.316406 17.246094 20.363281 17.246094 C 20.394531 17.246094 20.429688 17.242188 20.460938 17.242188 C 20.527344 17.242188 20.59375 17.242188 20.664062 17.242188 C 20.765625 17.242188 20.867188 17.242188 20.96875 17.242188 C 21.835938 17.234375 21.835938 17.234375 22.125 17.476562 C 22.351562 17.699219 22.40625 17.882812 22.40625 18.191406 C 22.398438 18.484375 22.289062 18.632812 22.078125 18.828125 C 22.023438 18.871094 22.023438 18.871094 21.957031 18.90625 C 21.992188 18.921875 21.992188 18.921875 22.023438 18.9375 C 22.273438 19.074219 22.472656 19.214844 22.5625 19.488281 C 22.605469 19.878906 22.574219 20.191406 22.316406 20.503906 C 22.109375 20.722656 21.835938 20.804688 21.535156 20.824219 C 21.4375 20.828125 21.339844 20.828125 21.238281 20.828125 C 21.203125 20.828125 21.167969 20.828125 21.132812 20.828125 C 21.058594 20.828125 20.980469 20.828125 20.90625 20.828125 C 20.792969 20.828125 20.679688 20.828125 20.5625 20.828125 C 20.492188 20.828125 20.417969 20.828125 20.34375 20.828125 C 20.308594 20.828125 20.277344 20.832031 20.242188 20.832031 C 20.207031 20.832031 20.175781 20.832031 20.144531 20.828125 C 20.117188 20.832031 20.089844 20.832031 20.058594 20.832031 C 19.964844 20.816406 19.917969 20.785156 19.847656 20.722656 C 19.820312 20.632812 19.8125 20.582031 19.8125 20.492188 C 19.808594 20.453125 19.808594 20.453125 19.808594 20.410156 C 19.808594 20.382812 19.808594 20.351562 19.808594 20.324219 C 19.808594 20.277344 19.808594 20.277344 19.808594 20.230469 C 19.808594 20.128906 19.808594 20.027344 19.808594 19.925781 C 19.804688 19.890625 19.804688 19.855469 19.804688 19.820312 C 19.804688 19.636719 19.804688 19.453125 19.804688 19.265625 C 19.804688 19.078125 19.800781 18.886719 19.800781 18.695312 C 19.800781 18.550781 19.800781 18.40625 19.796875 18.257812 C 19.796875 18.1875 19.796875 18.117188 19.796875 18.046875 C 19.796875 17.949219 19.796875 17.851562 19.796875 17.753906 C 19.796875 17.726562 19.796875 17.695312 19.792969 17.667969 C 19.796875 17.523438 19.800781 17.464844 19.898438 17.347656 C 20.003906 17.269531 20.054688 17.246094 20.1875 17.246094 Z M 20.1875 17.246094 "/>
<path style=" stroke:none;fill-rule:nonzero;fill:rgb(98.823529%,98.823529%,98.823529%);fill-opacity:1;" d="M 13.535156 17.277344 C 13.566406 17.277344 13.597656 17.277344 13.628906 17.277344 C 13.660156 17.277344 13.691406 17.277344 13.726562 17.277344 C 13.761719 17.277344 13.792969 17.273438 13.828125 17.273438 C 13.902344 17.273438 13.972656 17.273438 14.046875 17.273438 C 14.15625 17.273438 14.265625 17.273438 14.375 17.269531 C 14.445312 17.269531 14.515625 17.269531 14.585938 17.269531 C 14.617188 17.269531 14.648438 17.269531 14.683594 17.269531 C 15.027344 17.269531 15.351562 17.371094 15.597656 17.609375 C 15.839844 17.886719 15.917969 18.183594 15.910156 18.542969 C 15.882812 18.847656 15.769531 19.089844 15.527344 19.289062 C 15.460938 19.335938 15.398438 19.378906 15.332031 19.421875 C 15.351562 19.519531 15.382812 19.59375 15.433594 19.679688 C 15.445312 19.703125 15.460938 19.726562 15.472656 19.753906 C 15.488281 19.777344 15.503906 19.804688 15.519531 19.828125 C 15.542969 19.867188 15.542969 19.867188 15.5625 19.90625 C 15.632812 20.023438 15.699219 20.140625 15.773438 20.253906 C 15.792969 20.289062 15.816406 20.320312 15.835938 20.355469 C 15.855469 20.382812 15.875 20.414062 15.894531 20.441406 C 15.941406 20.542969 15.945312 20.613281 15.933594 20.722656 C 15.886719 20.796875 15.886719 20.796875 15.800781 20.851562 C 15.695312 20.867188 15.601562 20.859375 15.496094 20.851562 C 15.46875 20.847656 15.441406 20.84375 15.410156 20.84375 C 15.238281 20.820312 15.152344 20.796875 15.042969 20.65625 C 14.941406 20.511719 14.859375 20.355469 14.773438 20.199219 C 14.734375 20.128906 14.699219 20.0625 14.660156 19.992188 C 14.644531 19.960938 14.625 19.929688 14.609375 19.898438 C 14.574219 19.839844 14.539062 19.78125 14.503906 19.722656 C 14.460938 19.652344 14.460938 19.652344 14.460938 19.585938 C 14.351562 19.585938 14.238281 19.585938 14.125 19.585938 C 14.125 19.617188 14.128906 19.648438 14.128906 19.679688 C 14.132812 19.800781 14.132812 19.917969 14.132812 20.035156 C 14.136719 20.085938 14.136719 20.136719 14.136719 20.1875 C 14.140625 20.257812 14.140625 20.332031 14.140625 20.40625 C 14.144531 20.429688 14.144531 20.449219 14.144531 20.472656 C 14.144531 20.597656 14.128906 20.652344 14.050781 20.75 C 13.960938 20.816406 13.929688 20.839844 13.820312 20.839844 C 13.785156 20.839844 13.785156 20.839844 13.746094 20.839844 C 13.722656 20.835938 13.699219 20.835938 13.671875 20.835938 C 13.644531 20.835938 13.621094 20.835938 13.59375 20.835938 C 13.476562 20.835938 13.402344 20.828125 13.304688 20.757812 C 13.199219 20.613281 13.214844 20.464844 13.214844 20.296875 C 13.214844 20.265625 13.214844 20.238281 13.214844 20.207031 C 13.214844 20.105469 13.214844 20.007812 13.214844 19.90625 C 13.214844 19.835938 13.214844 19.769531 13.214844 19.699219 C 13.214844 19.554688 13.214844 19.40625 13.214844 19.261719 C 13.214844 19.078125 13.210938 18.890625 13.210938 18.703125 C 13.210938 18.5625 13.210938 18.417969 13.210938 18.273438 C 13.210938 18.207031 13.210938 18.136719 13.210938 18.070312 C 13.210938 17.972656 13.210938 17.875 13.210938 17.78125 C 13.210938 17.753906 13.210938 17.722656 13.207031 17.695312 C 13.210938 17.542969 13.21875 17.441406 13.320312 17.316406 C 13.402344 17.277344 13.449219 17.277344 13.535156 17.277344 Z M 13.535156 17.277344 "/>
<path style=" stroke:none;fill-rule:nonzero;fill:rgb(98.823529%,99.215686%,98.823529%);fill-opacity:1;" d="M 11.25 17.210938 C 11.296875 17.210938 11.296875 17.210938 11.34375 17.210938 C 11.652344 17.210938 11.921875 17.253906 12.199219 17.394531 C 12.238281 17.414062 12.277344 17.433594 12.316406 17.453125 C 12.476562 17.542969 12.476562 17.542969 12.519531 17.609375 C 12.515625 17.753906 12.441406 17.839844 12.355469 17.953125 C 12.328125 17.984375 12.304688 18.015625 12.28125 18.046875 C 12.21875 18.125 12.21875 18.125 12.152344 18.191406 C 12.085938 18.191406 12.085938 18.191406 12.011719 18.183594 C 11.984375 18.179688 11.957031 18.175781 11.929688 18.171875 C 11.847656 18.160156 11.847656 18.160156 11.722656 18.125 C 11.402344 18.042969 11.109375 18.085938 10.8125 18.222656 C 10.789062 18.234375 10.765625 18.246094 10.742188 18.253906 C 10.542969 18.367188 10.460938 18.574219 10.375 18.773438 C 10.296875 19.078125 10.328125 19.386719 10.484375 19.65625 C 10.636719 19.871094 10.851562 20.019531 11.113281 20.070312 C 11.359375 20.089844 11.578125 20.070312 11.816406 20.007812 C 11.816406 19.824219 11.816406 19.644531 11.816406 19.457031 C 11.65625 19.460938 11.65625 19.460938 11.496094 19.46875 C 11.390625 19.46875 11.328125 19.46875 11.25 19.40625 C 11.203125 19.300781 11.199219 19.214844 11.199219 19.097656 C 11.199219 19.039062 11.199219 19.039062 11.199219 18.980469 C 11.214844 18.867188 11.230469 18.820312 11.3125 18.742188 C 11.492188 18.683594 11.683594 18.703125 11.871094 18.703125 C 11.945312 18.703125 12.019531 18.699219 12.09375 18.699219 C 12.144531 18.699219 12.191406 18.699219 12.238281 18.699219 C 12.28125 18.699219 12.324219 18.699219 12.371094 18.699219 C 12.503906 18.710938 12.589844 18.746094 12.6875 18.839844 C 12.691406 18.886719 12.691406 18.933594 12.695312 18.984375 C 12.695312 19.011719 12.695312 19.042969 12.695312 19.074219 C 12.699219 19.214844 12.703125 19.355469 12.703125 19.496094 C 12.703125 19.570312 12.707031 19.640625 12.707031 19.714844 C 12.710938 19.824219 12.710938 19.929688 12.714844 20.035156 C 12.714844 20.066406 12.714844 20.101562 12.71875 20.132812 C 12.71875 20.269531 12.714844 20.359375 12.628906 20.46875 C 12.210938 20.828125 11.648438 20.9375 11.101562 20.925781 C 10.59375 20.886719 10.171875 20.695312 9.824219 20.335938 C 9.445312 19.875 9.351562 19.3125 9.40625 18.742188 C 9.484375 18.25 9.753906 17.816406 10.164062 17.519531 C 10.503906 17.300781 10.851562 17.210938 11.25 17.210938 Z M 11.25 17.210938 "/>
<path style=" stroke:none;fill-rule:nonzero;fill:rgb(98.823529%,98.823529%,98.823529%);fill-opacity:1;" d="M 17.835938 17.273438 C 17.894531 17.273438 17.894531 17.273438 17.957031 17.269531 C 17.992188 17.269531 18.03125 17.269531 18.070312 17.269531 C 18.105469 17.269531 18.140625 17.269531 18.179688 17.269531 C 18.300781 17.289062 18.355469 17.328125 18.445312 17.414062 C 18.480469 17.476562 18.480469 17.476562 18.507812 17.542969 C 18.519531 17.574219 18.53125 17.601562 18.539062 17.632812 C 18.625 17.875 18.707031 18.117188 18.789062 18.363281 C 18.828125 18.488281 18.871094 18.613281 18.914062 18.738281 C 18.921875 18.769531 18.933594 18.800781 18.945312 18.832031 C 19.023438 19.070312 19.105469 19.304688 19.1875 19.542969 C 19.199219 19.574219 19.210938 19.609375 19.222656 19.644531 C 19.269531 19.773438 19.3125 19.90625 19.359375 20.035156 C 19.390625 20.125 19.421875 20.214844 19.453125 20.304688 C 19.464844 20.332031 19.472656 20.359375 19.484375 20.386719 C 19.5625 20.621094 19.5625 20.621094 19.546875 20.753906 C 19.511719 20.8125 19.511719 20.8125 19.449219 20.851562 C 19.214844 20.878906 18.964844 20.871094 18.746094 20.785156 C 18.609375 20.589844 18.609375 20.589844 18.476562 20.070312 C 18.058594 20.070312 17.636719 20.070312 17.203125 20.070312 C 17.171875 20.191406 17.140625 20.308594 17.105469 20.429688 C 17.082031 20.488281 17.0625 20.550781 17.039062 20.609375 C 17.027344 20.636719 17.015625 20.660156 17.007812 20.6875 C 16.972656 20.753906 16.972656 20.753906 16.871094 20.816406 C 16.660156 20.859375 16.386719 20.90625 16.191406 20.816406 C 16.105469 20.722656 16.125 20.648438 16.132812 20.527344 C 16.164062 20.414062 16.164062 20.414062 16.207031 20.296875 C 16.214844 20.273438 16.222656 20.253906 16.230469 20.230469 C 16.25 20.183594 16.265625 20.136719 16.28125 20.089844 C 16.320312 19.992188 16.355469 19.890625 16.390625 19.789062 C 16.410156 19.734375 16.429688 19.683594 16.449219 19.628906 C 16.542969 19.375 16.632812 19.117188 16.71875 18.859375 C 16.746094 18.785156 16.769531 18.710938 16.796875 18.636719 C 16.871094 18.421875 16.945312 18.203125 17.015625 17.980469 C 17.03125 17.945312 17.042969 17.910156 17.054688 17.871094 C 17.074219 17.804688 17.097656 17.742188 17.117188 17.675781 C 17.207031 17.414062 17.207031 17.414062 17.339844 17.316406 C 17.484375 17.246094 17.675781 17.273438 17.835938 17.273438 Z M 17.835938 17.273438 "/>
<path style=" stroke:none;fill-rule:nonzero;fill:rgb(9.019608%,9.019608%,8.627451%);fill-opacity:1;" d="M 6.460938 22.925781 C 6.460938 22.980469 6.460938 23.03125 6.460938 23.085938 C 6.480469 23.085938 6.503906 23.085938 6.527344 23.085938 C 6.539062 23.128906 6.550781 23.171875 6.558594 23.210938 C 6.878906 24.367188 7.480469 25.402344 8.46875 26.136719 C 8.5 26.160156 8.535156 26.1875 8.566406 26.214844 C 9.3125 26.789062 10.179688 27.199219 11.078125 27.496094 C 11.105469 27.507812 11.132812 27.515625 11.160156 27.527344 C 12.035156 27.828125 12.972656 27.957031 13.890625 28.082031 C 13.878906 28.113281 13.867188 28.144531 13.859375 28.179688 C 13.890625 28.191406 13.925781 28.199219 13.957031 28.210938 C 13.625 28.425781 12.996094 28.230469 12.636719 28.164062 C 11.773438 27.996094 10.929688 27.785156 10.132812 27.421875 C 9.980469 27.355469 9.980469 27.355469 9.820312 27.332031 C 9.695312 27.386719 9.589844 27.460938 9.480469 27.539062 C 9.457031 27.558594 9.429688 27.574219 9.40625 27.59375 C 9.328125 27.648438 9.25 27.703125 9.171875 27.757812 C 8.085938 28.519531 8.085938 28.519531 7.679688 28.515625 C 7.640625 28.515625 7.605469 28.515625 7.566406 28.515625 C 7.398438 28.496094 7.292969 28.40625 7.167969 28.296875 C 7.101562 28.238281 7.035156 28.183594 6.964844 28.128906 C 6.808594 28.003906 6.714844 27.90625 6.679688 27.707031 C 6.65625 27.375 6.800781 27.109375 7.003906 26.855469 C 7.074219 26.773438 7.152344 26.695312 7.230469 26.621094 C 7.261719 26.589844 7.261719 26.589844 7.292969 26.558594 C 7.449219 26.417969 7.625 26.316406 7.8125 26.214844 C 7.902344 26.167969 7.902344 26.167969 8 26.105469 C 7.972656 26.078125 7.945312 26.054688 7.917969 26.027344 C 7.152344 25.308594 6.34375 24.203125 6.289062 23.132812 C 6.292969 23.054688 6.292969 23.054688 6.328125 22.957031 C 6.394531 22.925781 6.394531 22.925781 6.460938 22.925781 Z M 6.460938 22.925781 "/>
<path style=" stroke:none;fill-rule:nonzero;fill:rgb(98.039216%,84.705883%,65.490198%);fill-opacity:1;" d="M 16.503906 9.175781 C 16.9375 9.253906 17.320312 9.394531 17.621094 9.71875 C 17.757812 9.914062 17.765625 10.078125 17.742188 10.3125 C 17.65625 10.488281 17.511719 10.617188 17.328125 10.703125 C 16.980469 10.816406 16.628906 10.707031 16.300781 10.589844 C 16.21875 10.5625 16.140625 10.535156 16.0625 10.507812 C 16.03125 10.496094 15.996094 10.484375 15.960938 10.472656 C 15.496094 10.324219 15.035156 10.40625 14.59375 10.570312 C 14.570312 10.578125 14.546875 10.589844 14.523438 10.597656 C 14.414062 10.640625 14.304688 10.683594 14.195312 10.726562 C 13.964844 10.816406 13.691406 10.847656 13.445312 10.777344 C 13.273438 10.6875 13.179688 10.550781 13.121094 10.375 C 13.097656 10.164062 13.105469 9.996094 13.238281 9.820312 C 13.429688 9.597656 13.660156 9.386719 13.957031 9.304688 C 14.0625 9.308594 14.09375 9.339844 14.167969 9.414062 C 14.460938 9.695312 14.882812 9.738281 15.277344 9.734375 C 15.65625 9.714844 16.0625 9.621094 16.34375 9.367188 C 16.402344 9.304688 16.453125 9.242188 16.503906 9.175781 Z M 16.503906 9.175781 "/>
<path style=" stroke:none;fill-rule:nonzero;fill:rgb(9.019608%,9.019608%,9.019608%);fill-opacity:1;" d="M 13.683594 4.519531 C 14.199219 4.949219 14.601562 5.554688 14.660156 6.226562 C 14.707031 7.066406 14.519531 7.855469 13.9375 8.507812 C 13.339844 9.132812 12.523438 9.496094 11.640625 9.535156 C 10.648438 9.5625 9.742188 9.304688 9.011719 8.640625 C 8.453125 8.074219 8.285156 7.402344 8.292969 6.640625 C 8.3125 5.894531 8.683594 5.292969 9.203125 4.765625 C 9.222656 4.746094 9.242188 4.726562 9.261719 4.703125 C 10.375 3.519531 12.449219 3.582031 13.683594 4.519531 Z M 9.195312 5.117188 C 8.679688 5.675781 8.523438 6.386719 8.5625 7.113281 C 8.613281 7.730469 8.933594 8.25 9.414062 8.652344 C 10.132812 9.191406 11.042969 9.367188 11.9375 9.257812 C 12.519531 9.167969 13.082031 8.941406 13.523438 8.5625 C 13.546875 8.542969 13.570312 8.523438 13.59375 8.503906 C 14.0625 8.082031 14.359375 7.425781 14.398438 6.808594 C 14.425781 6.085938 14.230469 5.492188 13.746094 4.9375 C 13.230469 4.40625 12.480469 4.117188 11.734375 4.082031 C 10.730469 4.074219 9.890625 4.40625 9.195312 5.117188 Z M 9.195312 5.117188 "/>
<path style=" stroke:none;fill-rule:nonzero;fill:rgb(9.019608%,9.019608%,9.019608%);fill-opacity:1;" d="M 20.183594 3.664062 C 20.222656 3.675781 20.261719 3.6875 20.300781 3.703125 C 20.726562 3.851562 21.078125 4.070312 21.421875 4.34375 C 21.445312 4.363281 21.46875 4.382812 21.492188 4.398438 C 21.980469 4.832031 22.273438 5.523438 22.300781 6.15625 C 22.324219 6.976562 22.0625 7.714844 21.476562 8.3125 C 21.0625 8.714844 20.539062 8.957031 19.984375 9.113281 C 19.957031 9.121094 19.929688 9.128906 19.902344 9.136719 C 18.988281 9.382812 17.933594 9.203125 17.121094 8.757812 C 16.957031 8.664062 16.8125 8.554688 16.667969 8.429688 C 16.640625 8.40625 16.613281 8.382812 16.585938 8.359375 C 16.234375 8.039062 16.015625 7.671875 15.867188 7.230469 C 15.859375 7.207031 15.851562 7.1875 15.84375 7.164062 C 15.648438 6.5625 15.753906 5.8125 16.035156 5.253906 C 16.503906 4.429688 17.25 3.882812 18.175781 3.621094 C 18.792969 3.449219 19.578125 3.464844 20.183594 3.664062 Z M 16.972656 4.507812 C 16.953125 4.519531 16.9375 4.535156 16.921875 4.550781 C 16.40625 5.007812 16.0625 5.605469 16.023438 6.292969 C 16 6.976562 16.1875 7.566406 16.667969 8.074219 C 16.6875 8.097656 16.707031 8.117188 16.730469 8.140625 C 17.035156 8.460938 17.453125 8.675781 17.875 8.820312 C 17.933594 8.839844 17.933594 8.839844 17.992188 8.859375 C 18.667969 9.0625 19.527344 9.015625 20.183594 8.789062 C 20.207031 8.78125 20.226562 8.773438 20.25 8.765625 C 20.566406 8.65625 20.824219 8.496094 21.085938 8.300781 C 21.113281 8.28125 21.136719 8.265625 21.164062 8.246094 C 21.660156 7.855469 21.949219 7.25 22.023438 6.648438 C 22.074219 5.851562 21.851562 5.214844 21.332031 4.601562 C 20.839844 4.089844 20.054688 3.796875 19.347656 3.757812 C 18.496094 3.726562 17.613281 3.941406 16.972656 4.507812 Z M 16.972656 4.507812 "/>
<path style=" stroke:none;fill-rule:nonzero;fill:rgb(42.745098%,81.960785%,82.745099%);fill-opacity:1;" d="M 24.890625 4.28125 C 25.199219 4.53125 25.429688 4.871094 25.53125 5.25 C 25.535156 5.285156 25.535156 5.316406 25.539062 5.351562 C 25.542969 5.371094 25.542969 5.394531 25.546875 5.417969 C 25.566406 5.816406 25.4375 6.183594 25.171875 6.484375 C 25.148438 6.511719 25.125 6.539062 25.101562 6.566406 C 24.882812 6.820312 24.632812 7.039062 24.300781 7.132812 C 24.285156 7.085938 24.285156 7.085938 24.269531 7.039062 C 24.253906 6.996094 24.242188 6.953125 24.226562 6.910156 C 24.21875 6.886719 24.210938 6.863281 24.203125 6.839844 C 24.152344 6.695312 24.09375 6.554688 24.019531 6.414062 C 23.992188 6.335938 24 6.300781 24.035156 6.226562 C 24.082031 6.167969 24.082031 6.167969 24.144531 6.109375 C 24.304688 5.9375 24.386719 5.753906 24.417969 5.523438 C 24.394531 5.355469 24.34375 5.21875 24.207031 5.105469 C 23.933594 4.933594 23.699219 4.902344 23.382812 4.960938 C 23.332031 4.972656 23.28125 4.984375 23.230469 4.992188 C 23.214844 4.972656 23.203125 4.949219 23.1875 4.925781 C 23.050781 4.710938 22.898438 4.507812 22.726562 4.3125 C 22.84375 4.183594 22.972656 4.121094 23.128906 4.046875 C 23.152344 4.035156 23.175781 4.023438 23.199219 4.011719 C 23.777344 3.734375 24.402344 3.914062 24.890625 4.28125 Z M 24.890625 4.28125 "/>
<path style=" stroke:none;fill-rule:nonzero;fill:rgb(42.745098%,81.960785%,82.745099%);fill-opacity:1;" d="M 8.132812 4.703125 C 8.121094 4.71875 8.113281 4.734375 8.101562 4.75 C 7.988281 4.910156 7.878906 5.070312 7.773438 5.234375 C 7.757812 5.253906 7.746094 5.273438 7.730469 5.296875 C 7.660156 5.402344 7.660156 5.402344 7.597656 5.511719 C 7.582031 5.503906 7.5625 5.5 7.546875 5.492188 C 7.308594 5.402344 7.054688 5.359375 6.808594 5.445312 C 6.648438 5.523438 6.535156 5.609375 6.460938 5.773438 C 6.417969 6.019531 6.492188 6.226562 6.636719 6.429688 C 6.738281 6.527344 6.832031 6.582031 6.960938 6.648438 C 6.871094 6.953125 6.765625 7.253906 6.660156 7.554688 C 6.210938 7.507812 5.878906 7.222656 5.59375 6.894531 C 5.34375 6.5625 5.308594 6.203125 5.355469 5.804688 C 5.382812 5.683594 5.425781 5.585938 5.488281 5.480469 C 5.503906 5.453125 5.515625 5.429688 5.53125 5.402344 C 5.777344 4.964844 6.148438 4.628906 6.636719 4.460938 C 7.175781 4.316406 7.65625 4.445312 8.132812 4.703125 Z M 8.132812 4.703125 "/>
<path style=" stroke:none;fill-rule:nonzero;fill:rgb(9.411765%,9.803922%,9.411765%);fill-opacity:1;" d="M 10.675781 5.929688 C 10.96875 6.082031 11.109375 6.316406 11.214844 6.613281 C 11.242188 6.933594 11.207031 7.207031 11.003906 7.46875 C 10.800781 7.660156 10.574219 7.78125 10.285156 7.792969 C 9.988281 7.789062 9.71875 7.65625 9.507812 7.457031 C 9.316406 7.222656 9.238281 6.980469 9.273438 6.679688 C 9.339844 6.390625 9.488281 6.148438 9.746094 5.984375 C 10.039062 5.839844 10.367188 5.8125 10.675781 5.929688 Z M 10.675781 5.929688 "/>
<path style=" stroke:none;fill-rule:nonzero;fill:rgb(9.803922%,10.196079%,9.803922%);fill-opacity:1;" d="M 18.285156 5.789062 C 18.46875 5.933594 18.601562 6.164062 18.644531 6.386719 C 18.671875 6.671875 18.59375 6.953125 18.40625 7.179688 C 18.207031 7.378906 17.9375 7.492188 17.652344 7.5 C 17.355469 7.496094 17.117188 7.398438 16.902344 7.199219 C 16.734375 6.992188 16.652344 6.765625 16.660156 6.5 C 16.695312 6.222656 16.816406 5.984375 17.039062 5.804688 C 17.441406 5.5625 17.875 5.527344 18.285156 5.789062 Z M 18.285156 5.789062 "/>
<path style=" stroke:none;fill-rule:nonzero;fill:rgb(97.647059%,84.705883%,65.490198%);fill-opacity:1;" d="M 8.335938 26.332031 C 8.429688 26.386719 8.429688 26.386719 8.523438 26.464844 C 8.746094 26.644531 8.984375 26.789062 9.234375 26.933594 C 9.261719 26.953125 9.292969 26.96875 9.320312 26.984375 C 9.347656 27 9.375 27.015625 9.398438 27.03125 C 9.472656 27.074219 9.539062 27.125 9.605469 27.171875 C 9.441406 27.292969 9.273438 27.410156 9.105469 27.53125 C 9.085938 27.542969 9.0625 27.558594 9.042969 27.574219 C 7.964844 28.335938 7.964844 28.335938 7.53125 28.277344 C 7.410156 28.214844 7.375 28.167969 7.320312 28.046875 C 7.335938 27.820312 7.5 27.667969 7.644531 27.503906 C 7.707031 27.417969 7.710938 27.371094 7.699219 27.269531 C 7.644531 27.269531 7.589844 27.269531 7.53125 27.269531 C 7.519531 27.300781 7.519531 27.300781 7.503906 27.328125 C 7.464844 27.398438 7.421875 27.457031 7.367188 27.519531 C 7.261719 27.65625 7.195312 27.792969 7.128906 27.953125 C 6.933594 27.765625 6.933594 27.765625 6.917969 27.613281 C 6.925781 27.269531 7.125 27.046875 7.363281 26.816406 C 7.402344 26.777344 7.402344 26.777344 7.445312 26.738281 C 7.6875 26.511719 7.980469 26.289062 8.335938 26.332031 Z M 8.335938 26.332031 "/>
<path style=" stroke:none;fill-rule:nonzero;fill:rgb(97.647059%,85.09804%,65.490198%);fill-opacity:1;" d="M 23.257812 26.171875 C 23.753906 26.304688 24.097656 26.695312 24.347656 27.105469 C 24.457031 27.3125 24.5 27.496094 24.46875 27.726562 C 24.40625 27.828125 24.40625 27.828125 24.335938 27.886719 C 24.3125 27.886719 24.289062 27.886719 24.269531 27.886719 C 24.261719 27.867188 24.257812 27.847656 24.253906 27.828125 C 24.183594 27.578125 24.074219 27.3125 23.867188 27.140625 C 23.777344 27.117188 23.777344 27.117188 23.699219 27.109375 C 23.707031 27.246094 23.734375 27.316406 23.828125 27.414062 C 24 27.597656 24.042969 27.769531 24.046875 28.011719 C 24.042969 28.035156 24.039062 28.058594 24.035156 28.082031 C 23.882812 28.179688 23.742188 28.164062 23.566406 28.144531 C 23.230469 28.066406 22.933594 27.789062 22.683594 27.566406 C 22.46875 27.375 22.226562 27.210938 21.992188 27.042969 C 22.101562 26.929688 22.222656 26.847656 22.359375 26.765625 C 22.765625 26.519531 22.765625 26.519531 23.113281 26.207031 C 23.164062 26.167969 23.164062 26.167969 23.257812 26.171875 Z M 23.257812 26.171875 "/>
<path style=" stroke:none;fill-rule:nonzero;fill:rgb(8.627451%,8.627451%,8.235294%);fill-opacity:1;" d="M 17.105469 9.144531 C 17.394531 9.175781 17.628906 9.332031 17.808594 9.554688 C 17.996094 9.800781 18 10.046875 17.976562 10.34375 C 17.914062 10.570312 17.738281 10.746094 17.539062 10.875 C 17.324219 10.984375 17.109375 10.972656 16.871094 10.960938 C 16.871094 10.980469 16.871094 11 16.871094 11.019531 C 16.875 11.113281 16.875 11.203125 16.875 11.296875 C 16.878906 11.328125 16.878906 11.359375 16.878906 11.390625 C 16.882812 11.707031 16.832031 11.972656 16.601562 12.203125 C 16.394531 12.378906 16.207031 12.410156 15.933594 12.398438 C 15.726562 12.375 15.589844 12.257812 15.429688 12.128906 C 15.425781 12.144531 15.417969 12.164062 15.410156 12.183594 C 15.332031 12.3125 15.207031 12.367188 15.070312 12.425781 C 14.832031 12.480469 14.617188 12.472656 14.394531 12.363281 C 14.179688 12.230469 14.078125 12.042969 14.023438 11.804688 C 14.015625 11.667969 14.015625 11.53125 14.019531 11.394531 C 14.019531 11.359375 14.019531 11.324219 14.019531 11.289062 C 14.019531 11.199219 14.023438 11.113281 14.023438 11.023438 C 14.035156 11.023438 14.046875 11.023438 14.058594 11.023438 C 14.058594 11.054688 14.0625 11.085938 14.0625 11.117188 C 14.066406 11.15625 14.070312 11.195312 14.070312 11.234375 C 14.074219 11.273438 14.074219 11.3125 14.078125 11.351562 C 14.082031 11.382812 14.085938 11.414062 14.09375 11.445312 C 14.113281 11.457031 14.136719 11.46875 14.160156 11.480469 C 14.171875 11.339844 14.179688 11.199219 14.191406 11.058594 C 14.203125 11.058594 14.214844 11.058594 14.226562 11.058594 C 14.226562 11.09375 14.226562 11.128906 14.230469 11.167969 C 14.238281 11.671875 14.238281 11.671875 14.492188 12.09375 C 14.636719 12.179688 14.796875 12.175781 14.960938 12.160156 C 15.074219 12.132812 15.167969 12.097656 15.242188 12.003906 C 15.292969 11.828125 15.304688 11.652344 15.308594 11.472656 C 15.308594 11.445312 15.308594 11.421875 15.308594 11.394531 C 15.3125 11.316406 15.3125 11.238281 15.316406 11.160156 C 15.316406 11.105469 15.320312 11.050781 15.320312 10.996094 C 15.324219 10.867188 15.328125 10.734375 15.332031 10.605469 C 15.339844 10.605469 15.351562 10.605469 15.363281 10.605469 C 15.367188 10.632812 15.367188 10.664062 15.371094 10.695312 C 15.371094 10.738281 15.375 10.777344 15.378906 10.820312 C 15.382812 10.859375 15.382812 10.902344 15.386719 10.941406 C 15.394531 11.039062 15.410156 11.125 15.429688 11.21875 C 15.484375 11.113281 15.476562 10.992188 15.484375 10.875 C 15.484375 10.835938 15.484375 10.835938 15.488281 10.796875 C 15.492188 10.730469 15.496094 10.667969 15.496094 10.605469 C 15.507812 10.605469 15.519531 10.605469 15.53125 10.605469 C 15.558594 10.765625 15.566406 10.921875 15.570312 11.085938 C 15.570312 11.148438 15.570312 11.148438 15.574219 11.207031 C 15.574219 11.292969 15.574219 11.378906 15.578125 11.460938 C 15.582031 11.6875 15.585938 11.847656 15.730469 12.03125 C 15.855469 12.136719 15.96875 12.144531 16.125 12.136719 C 16.277344 12.117188 16.371094 12.058594 16.476562 11.960938 C 16.617188 11.738281 16.617188 11.488281 16.625 11.234375 C 16.625 11.203125 16.625 11.171875 16.628906 11.136719 C 16.628906 11.054688 16.632812 10.976562 16.636719 10.894531 C 16.605469 10.890625 16.574219 10.886719 16.542969 10.882812 C 16.433594 10.863281 16.335938 10.832031 16.234375 10.796875 C 16.265625 10.734375 16.300781 10.667969 16.335938 10.605469 C 16.3125 10.59375 16.289062 10.582031 16.269531 10.570312 C 16.3125 10.582031 16.359375 10.589844 16.40625 10.597656 C 16.429688 10.605469 16.457031 10.609375 16.484375 10.617188 C 16.570312 10.636719 16.570312 10.636719 16.664062 10.671875 C 16.890625 10.738281 17.171875 10.746094 17.390625 10.648438 C 17.53125 10.566406 17.632812 10.453125 17.707031 10.3125 C 17.730469 10.09375 17.734375 9.902344 17.597656 9.722656 C 17.445312 9.566406 17.265625 9.441406 17.070312 9.339844 C 17.082031 9.308594 17.09375 9.273438 17.105469 9.242188 C 17.136719 9.230469 17.171875 9.21875 17.203125 9.210938 C 17.171875 9.1875 17.140625 9.167969 17.105469 9.144531 Z M 17.105469 9.144531 "/>
<path style=" stroke:none;fill-rule:nonzero;fill:rgb(98.823529%,98.823529%,98.823529%);fill-opacity:1;" d="M 15.296875 10.605469 C 15.339844 10.828125 15.335938 11.054688 15.335938 11.28125 C 15.335938 11.324219 15.335938 11.363281 15.339844 11.402344 C 15.339844 11.90625 15.339844 11.90625 15.183594 12.09375 C 15.027344 12.210938 14.855469 12.210938 14.660156 12.191406 C 14.503906 12.136719 14.417969 12.070312 14.328125 11.933594 C 14.273438 11.796875 14.25 11.6875 14.253906 11.542969 C 14.253906 11.507812 14.253906 11.46875 14.253906 11.433594 C 14.253906 11.394531 14.253906 11.359375 14.253906 11.320312 C 14.253906 11.285156 14.253906 11.246094 14.257812 11.207031 C 14.257812 11.113281 14.257812 11.019531 14.257812 10.929688 C 14.378906 10.878906 14.5 10.832031 14.621094 10.785156 C 14.671875 10.761719 14.671875 10.761719 14.722656 10.742188 C 14.769531 10.722656 14.769531 10.722656 14.820312 10.703125 C 14.851562 10.691406 14.882812 10.679688 14.914062 10.667969 C 15.046875 10.617188 15.15625 10.601562 15.296875 10.605469 Z M 15.296875 10.605469 "/>
<path style=" stroke:none;fill-rule:nonzero;fill:rgb(99.215686%,99.215686%,98.823529%);fill-opacity:1;" d="M 15.566406 10.605469 C 15.730469 10.621094 15.878906 10.644531 16.035156 10.695312 C 16.085938 10.714844 16.085938 10.714844 16.140625 10.730469 C 16.179688 10.742188 16.214844 10.753906 16.25 10.769531 C 16.308594 10.785156 16.308594 10.785156 16.363281 10.804688 C 16.453125 10.835938 16.546875 10.863281 16.636719 10.894531 C 16.640625 11.007812 16.640625 11.121094 16.640625 11.230469 C 16.644531 11.261719 16.644531 11.292969 16.644531 11.328125 C 16.648438 11.554688 16.640625 11.816406 16.476562 11.996094 C 16.320312 12.132812 16.1875 12.171875 15.976562 12.167969 C 15.855469 12.15625 15.789062 12.109375 15.699219 12.03125 C 15.574219 11.855469 15.546875 11.730469 15.550781 11.519531 C 15.550781 11.492188 15.550781 11.464844 15.550781 11.4375 C 15.554688 11.355469 15.554688 11.273438 15.554688 11.1875 C 15.558594 11.132812 15.558594 11.074219 15.558594 11.019531 C 15.558594 10.878906 15.5625 10.742188 15.566406 10.605469 Z M 15.566406 10.605469 "/>
<path style=" stroke:none;fill-rule:nonzero;fill:rgb(97.254902%,85.09804%,65.882355%);fill-opacity:1;" d="M 5.757812 16.082031 C 5.746094 16.105469 5.738281 16.128906 5.730469 16.148438 C 5.71875 16.179688 5.703125 16.207031 5.691406 16.238281 C 5.679688 16.265625 5.667969 16.292969 5.65625 16.324219 C 5.515625 16.679688 5.539062 17.164062 5.691406 17.511719 C 5.710938 17.570312 5.710938 17.570312 5.730469 17.628906 C 5.738281 17.652344 5.75 17.679688 5.757812 17.703125 C 5.484375 17.8125 5.292969 17.859375 5 17.816406 C 4.859375 17.757812 4.757812 17.675781 4.6875 17.542969 C 4.691406 17.460938 4.710938 17.421875 4.769531 17.363281 C 4.789062 17.34375 4.808594 17.328125 4.828125 17.3125 C 4.847656 17.296875 4.871094 17.28125 4.890625 17.261719 C 4.953125 17.21875 4.953125 17.21875 5.050781 17.164062 C 5.074219 17.152344 5.097656 17.136719 5.121094 17.121094 C 5.121094 17.078125 5.121094 17.035156 5.121094 16.992188 C 4.902344 17 4.753906 17.085938 4.585938 17.21875 C 4.574219 17.238281 4.5625 17.261719 4.550781 17.285156 C 4.53125 17.285156 4.507812 17.285156 4.484375 17.285156 C 4.417969 17.183594 4.398438 17.082031 4.402344 16.964844 C 4.433594 16.828125 4.523438 16.734375 4.621094 16.636719 C 4.632812 16.617188 4.648438 16.597656 4.664062 16.578125 C 4.835938 16.386719 5.5 15.960938 5.757812 16.082031 Z M 5.757812 16.082031 "/>
<path style=" stroke:none;fill-rule:nonzero;fill:rgb(97.254902%,85.09804%,65.882355%);fill-opacity:1;" d="M 26.074219 15.855469 C 26.503906 16 26.917969 16.175781 27.152344 16.570312 C 27.191406 16.660156 27.183594 16.734375 27.179688 16.828125 C 27.097656 16.792969 27.039062 16.757812 26.96875 16.699219 C 26.859375 16.621094 26.777344 16.613281 26.644531 16.601562 C 26.65625 16.707031 26.664062 16.753906 26.746094 16.824219 C 26.773438 16.839844 26.800781 16.859375 26.832031 16.875 C 26.976562 16.980469 26.976562 16.980469 27.011719 17.089844 C 26.957031 17.253906 26.828125 17.335938 26.675781 17.417969 C 26.527344 17.460938 26.382812 17.453125 26.230469 17.449219 C 26.199219 17.449219 26.167969 17.449219 26.136719 17.449219 C 26.0625 17.449219 25.984375 17.445312 25.90625 17.445312 C 25.945312 17.351562 25.984375 17.261719 26.023438 17.167969 C 26.1875 16.746094 26.175781 16.289062 26.074219 15.855469 Z M 26.074219 15.855469 "/>
<path style=" stroke:none;fill-rule:nonzero;fill:rgb(8.627451%,8.627451%,8.235294%);fill-opacity:1;" d="M 20.71875 19.328125 C 20.824219 19.324219 20.933594 19.324219 21.042969 19.320312 C 21.089844 19.320312 21.089844 19.320312 21.140625 19.316406 C 21.316406 19.316406 21.4375 19.328125 21.589844 19.421875 C 21.6875 19.535156 21.707031 19.632812 21.703125 19.78125 C 21.683594 19.890625 21.632812 19.957031 21.554688 20.039062 C 21.394531 20.128906 21.222656 20.113281 21.042969 20.109375 C 20.882812 20.105469 20.882812 20.105469 20.71875 20.105469 C 20.71875 19.847656 20.71875 19.589844 20.71875 19.328125 Z M 20.71875 19.328125 "/>
<path style=" stroke:none;fill-rule:nonzero;fill:rgb(9.019608%,9.411765%,9.019608%);fill-opacity:1;" d="M 14.125 18.0625 C 14.261719 18.058594 14.261719 18.058594 14.398438 18.054688 C 14.425781 18.054688 14.453125 18.054688 14.480469 18.054688 C 14.644531 18.050781 14.753906 18.070312 14.894531 18.160156 C 14.992188 18.300781 15.015625 18.414062 14.996094 18.582031 C 14.914062 18.742188 14.832031 18.804688 14.660156 18.871094 C 14.566406 18.882812 14.476562 18.882812 14.378906 18.878906 C 14.253906 18.875 14.253906 18.875 14.125 18.871094 C 14.125 18.605469 14.125 18.335938 14.125 18.0625 Z M 14.125 18.0625 "/>
<path style=" stroke:none;fill-rule:nonzero;fill:rgb(8.235294%,8.627451%,7.843138%);fill-opacity:1;" d="M 20.71875 17.996094 C 20.820312 17.996094 20.921875 17.992188 21.027344 17.992188 C 21.074219 17.988281 21.074219 17.988281 21.125 17.988281 C 21.285156 17.988281 21.390625 17.992188 21.523438 18.09375 C 21.601562 18.171875 21.601562 18.195312 21.605469 18.300781 C 21.601562 18.421875 21.59375 18.445312 21.511719 18.546875 C 21.398438 18.632812 21.347656 18.648438 21.210938 18.648438 C 21.183594 18.648438 21.160156 18.648438 21.132812 18.648438 C 21.101562 18.648438 21.066406 18.648438 21.035156 18.648438 C 20.929688 18.648438 20.828125 18.644531 20.71875 18.644531 C 20.71875 18.429688 20.71875 18.21875 20.71875 17.996094 Z M 20.71875 17.996094 "/>
<path style=" stroke:none;fill-rule:nonzero;fill:rgb(9.019608%,9.019608%,8.627451%);fill-opacity:1;" d="M 17.808594 18.222656 C 17.894531 18.308594 17.917969 18.402344 17.953125 18.511719 C 17.960938 18.535156 17.96875 18.558594 17.976562 18.578125 C 17.992188 18.625 18.007812 18.671875 18.023438 18.71875 C 18.046875 18.792969 18.070312 18.863281 18.09375 18.933594 C 18.109375 18.980469 18.125 19.023438 18.136719 19.070312 C 18.144531 19.089844 18.152344 19.113281 18.160156 19.136719 C 18.210938 19.285156 18.210938 19.285156 18.210938 19.359375 C 17.957031 19.359375 17.699219 19.359375 17.4375 19.359375 C 17.511719 19.105469 17.582031 18.859375 17.660156 18.609375 C 17.671875 18.574219 17.683594 18.542969 17.691406 18.507812 C 17.707031 18.457031 17.707031 18.457031 17.722656 18.410156 C 17.730469 18.382812 17.742188 18.351562 17.75 18.324219 C 17.773438 18.257812 17.773438 18.257812 17.808594 18.222656 Z M 17.808594 18.222656 "/>
<path style=" stroke:none;fill-rule:nonzero;fill:rgb(7.058824%,6.666667%,6.666667%);fill-opacity:1;" d="M 16.269531 10.570312 C 16.3125 10.582031 16.359375 10.589844 16.40625 10.597656 C 16.429688 10.605469 16.457031 10.609375 16.484375 10.617188 C 16.570312 10.636719 16.570312 10.636719 16.664062 10.667969 C 16.792969 10.707031 16.914062 10.714844 17.050781 10.722656 C 17.074219 10.722656 17.097656 10.722656 17.125 10.726562 C 17.183594 10.726562 17.246094 10.730469 17.304688 10.734375 C 17.289062 10.746094 17.273438 10.761719 17.253906 10.773438 C 17.191406 10.835938 17.191406 10.835938 17.203125 10.960938 C 17.09375 10.960938 16.984375 10.960938 16.871094 10.960938 C 16.871094 11.152344 16.871094 11.34375 16.871094 11.542969 C 16.859375 11.542969 16.847656 11.542969 16.835938 11.542969 C 16.835938 11.511719 16.832031 11.480469 16.832031 11.449219 C 16.828125 11.410156 16.828125 11.367188 16.824219 11.324219 C 16.820312 11.285156 16.820312 11.242188 16.816406 11.203125 C 16.808594 11.082031 16.808594 11.082031 16.738281 10.960938 C 16.714844 11.195312 16.691406 11.429688 16.667969 11.671875 C 16.660156 11.671875 16.648438 11.671875 16.636719 11.671875 C 16.636719 11.417969 16.636719 11.160156 16.636719 10.894531 C 16.535156 10.878906 16.535156 10.878906 16.433594 10.863281 C 16.367188 10.84375 16.300781 10.820312 16.234375 10.796875 C 16.265625 10.734375 16.300781 10.667969 16.335938 10.605469 C 16.3125 10.59375 16.289062 10.582031 16.269531 10.570312 Z M 16.269531 10.570312 "/>
<path style=" stroke:none;fill-rule:nonzero;fill:rgb(97.254902%,97.254902%,97.254902%);fill-opacity:1;" d="M 10.476562 6.5 C 10.605469 6.523438 10.660156 6.550781 10.746094 6.648438 C 10.765625 6.738281 10.765625 6.816406 10.746094 6.90625 C 10.691406 6.988281 10.691406 6.988281 10.609375 7.035156 C 10.496094 7.054688 10.496094 7.054688 10.375 7.035156 C 10.261719 6.957031 10.21875 6.910156 10.1875 6.777344 C 10.222656 6.613281 10.308594 6.53125 10.476562 6.5 Z M 10.476562 6.5 "/>
<path style=" stroke:none;fill-rule:nonzero;fill:rgb(98.039216%,98.039216%,98.039216%);fill-opacity:1;" d="M 17.976562 6.277344 C 18.042969 6.289062 18.042969 6.289062 18.128906 6.339844 C 18.175781 6.421875 18.175781 6.421875 18.171875 6.535156 C 18.140625 6.648438 18.140625 6.648438 18.105469 6.710938 C 18.003906 6.765625 17.921875 6.757812 17.808594 6.746094 C 17.726562 6.691406 17.726562 6.691406 17.671875 6.613281 C 17.65625 6.507812 17.664062 6.441406 17.707031 6.34375 C 17.792969 6.273438 17.867188 6.273438 17.976562 6.277344 Z M 17.976562 6.277344 "/>
<path style=" stroke:none;fill-rule:nonzero;fill:rgb(7.843138%,7.843138%,7.058824%);fill-opacity:1;" d="M 23.699219 27.109375 C 23.800781 27.097656 23.847656 27.09375 23.929688 27.15625 C 24.210938 27.484375 24.210938 27.484375 24.195312 27.671875 C 24.1875 27.699219 24.175781 27.726562 24.167969 27.757812 C 24.15625 27.808594 24.144531 27.859375 24.132812 27.914062 C 24.121094 27.957031 24.109375 28.003906 24.101562 28.050781 C 24.089844 28.050781 24.078125 28.050781 24.066406 28.050781 C 24.0625 28.023438 24.058594 28 24.050781 27.972656 C 23.992188 27.703125 23.886719 27.515625 23.707031 27.300781 C 23.664062 27.238281 23.664062 27.238281 23.675781 27.164062 C 23.683594 27.148438 23.691406 27.128906 23.699219 27.109375 Z M 23.699219 27.109375 "/>
<path style=" stroke:none;fill-rule:nonzero;fill:rgb(10.588235%,12.941177%,13.333334%);fill-opacity:1;" d="M 16.109375 2.105469 C 16.179688 2.105469 16.253906 2.105469 16.324219 2.105469 C 16.492188 2.105469 16.664062 2.105469 16.835938 2.109375 C 16.835938 2.117188 16.835938 2.128906 16.835938 2.140625 C 16.144531 2.21875 15.457031 2.210938 14.761719 2.203125 C 15.117188 2.007812 15.714844 2.105469 16.109375 2.105469 Z M 16.109375 2.105469 "/>
<path style=" stroke:none;fill-rule:nonzero;fill:rgb(14.117648%,13.333334%,12.156863%);fill-opacity:1;" d="M 27.011719 17.152344 C 27.078125 17.242188 27.078125 17.285156 27.070312 17.394531 C 26.988281 17.554688 26.878906 17.613281 26.710938 17.671875 C 26.59375 17.683594 26.59375 17.683594 26.511719 17.671875 C 26.5 17.628906 26.488281 17.585938 26.476562 17.542969 C 26.3125 17.542969 26.144531 17.542969 25.976562 17.542969 C 25.996094 17.511719 26.019531 17.480469 26.042969 17.445312 C 26.121094 17.433594 26.121094 17.433594 26.214844 17.4375 C 26.269531 17.4375 26.269531 17.4375 26.320312 17.4375 C 26.359375 17.4375 26.394531 17.4375 26.429688 17.441406 C 26.46875 17.441406 26.503906 17.441406 26.542969 17.441406 C 26.632812 17.441406 26.722656 17.445312 26.8125 17.445312 C 26.8125 17.46875 26.8125 17.488281 26.8125 17.511719 C 26.84375 17.5 26.878906 17.488281 26.914062 17.476562 C 26.917969 17.453125 26.921875 17.429688 26.925781 17.40625 C 26.945312 17.316406 26.976562 17.238281 27.011719 17.152344 Z M 27.011719 17.152344 "/>
<path style=" stroke:none;fill-rule:nonzero;fill:rgb(5.490196%,4.705882%,4.705882%);fill-opacity:1;" d="M 14.023438 11.023438 C 14.035156 11.023438 14.046875 11.023438 14.058594 11.023438 C 14.058594 11.054688 14.0625 11.085938 14.0625 11.117188 C 14.066406 11.15625 14.070312 11.195312 14.070312 11.234375 C 14.074219 11.273438 14.074219 11.3125 14.078125 11.351562 C 14.082031 11.382812 14.085938 11.414062 14.09375 11.445312 C 14.113281 11.457031 14.136719 11.46875 14.160156 11.480469 C 14.171875 11.339844 14.179688 11.199219 14.191406 11.058594 C 14.203125 11.058594 14.214844 11.058594 14.226562 11.058594 C 14.234375 11.179688 14.242188 11.304688 14.25 11.425781 C 14.25 11.460938 14.253906 11.496094 14.257812 11.53125 C 14.257812 11.566406 14.261719 11.597656 14.261719 11.632812 C 14.265625 11.664062 14.265625 11.695312 14.269531 11.726562 C 14.265625 11.753906 14.261719 11.777344 14.257812 11.804688 C 14.226562 11.824219 14.191406 11.847656 14.160156 11.867188 C 14.117188 11.933594 14.117188 11.933594 14.09375 11.996094 C 14.003906 11.804688 14.019531 11.609375 14.019531 11.402344 C 14.019531 11.367188 14.023438 11.328125 14.023438 11.292969 C 14.023438 11.203125 14.023438 11.113281 14.023438 11.023438 Z M 14.023438 11.023438 "/>
<path style=" stroke:none;fill-rule:nonzero;fill:rgb(8.235294%,8.235294%,8.627451%);fill-opacity:1;" d="M 15.195312 10.472656 C 15.183594 10.550781 15.183594 10.550781 15.128906 10.636719 C 14.984375 10.707031 14.855469 10.734375 14.695312 10.734375 C 14.671875 10.667969 14.648438 10.605469 14.628906 10.539062 C 14.835938 10.449219 14.972656 10.433594 15.195312 10.472656 Z M 15.195312 10.472656 "/>
<path style=" stroke:none;fill-rule:nonzero;fill:rgb(6.27451%,6.27451%,5.882353%);fill-opacity:1;" d="M 26.578125 15.824219 C 26.722656 15.839844 26.785156 15.882812 26.878906 15.988281 C 26.835938 15.976562 26.789062 15.964844 26.746094 15.953125 C 26.734375 15.996094 26.722656 16.039062 26.710938 16.082031 C 26.726562 16.09375 26.746094 16.105469 26.761719 16.117188 C 26.957031 16.25 27.105469 16.398438 27.214844 16.601562 C 27.214844 16.679688 27.214844 16.753906 27.214844 16.828125 C 27.203125 16.828125 27.191406 16.828125 27.179688 16.828125 C 27.171875 16.792969 27.167969 16.753906 27.160156 16.714844 C 27.0625 16.34375 26.730469 16.167969 26.410156 15.988281 C 26.441406 15.964844 26.476562 15.945312 26.511719 15.921875 C 26.53125 15.890625 26.554688 15.855469 26.578125 15.824219 Z M 26.578125 15.824219 "/>
<path style=" stroke:none;fill-rule:nonzero;fill:rgb(6.27451%,5.882353%,5.882353%);fill-opacity:1;" d="M 7.332031 27.53125 C 7.332031 27.5625 7.332031 27.59375 7.332031 27.628906 C 7.410156 27.609375 7.488281 27.589844 7.566406 27.5625 C 7.53125 27.660156 7.492188 27.734375 7.429688 27.816406 C 7.355469 27.929688 7.339844 28.015625 7.332031 28.144531 C 7.320312 28.144531 7.308594 28.144531 7.296875 28.144531 C 7.296875 28.050781 7.296875 27.953125 7.296875 27.855469 C 7.273438 27.855469 7.253906 27.855469 7.230469 27.855469 C 7.207031 27.898438 7.1875 27.941406 7.164062 27.984375 C 7.101562 27.976562 7.101562 27.976562 7.027344 27.953125 C 6.988281 27.886719 6.988281 27.886719 6.960938 27.820312 C 7.007812 27.855469 7.050781 27.886719 7.097656 27.917969 C 7.109375 27.894531 7.125 27.867188 7.140625 27.84375 C 7.15625 27.808594 7.175781 27.777344 7.195312 27.742188 C 7.222656 27.695312 7.222656 27.695312 7.25 27.644531 C 7.296875 27.5625 7.296875 27.5625 7.332031 27.53125 Z M 7.261719 27.691406 C 7.296875 27.757812 7.296875 27.757812 7.296875 27.757812 Z M 7.261719 27.691406 "/>
<path style=" stroke:none;fill-rule:nonzero;fill:rgb(7.058824%,6.666667%,6.27451%);fill-opacity:1;" d="M 24.738281 7.101562 C 24.757812 7.113281 24.78125 7.121094 24.804688 7.132812 C 24.753906 7.164062 24.707031 7.199219 24.65625 7.230469 C 24.617188 7.253906 24.617188 7.253906 24.574219 7.28125 C 24.503906 7.328125 24.503906 7.328125 24.433594 7.359375 C 24.445312 7.445312 24.457031 7.53125 24.46875 7.621094 C 24.445312 7.621094 24.425781 7.621094 24.402344 7.621094 C 24.398438 7.640625 24.394531 7.660156 24.390625 7.679688 C 24.367188 7.75 24.367188 7.75 24.269531 7.816406 C 24.246094 7.707031 24.222656 7.601562 24.199219 7.492188 C 24.222656 7.511719 24.246094 7.535156 24.269531 7.554688 C 24.277344 7.53125 24.285156 7.507812 24.292969 7.484375 C 24.378906 7.300781 24.554688 7.1875 24.738281 7.101562 Z M 24.738281 7.101562 "/>
<path style=" stroke:none;fill-rule:nonzero;fill:rgb(10.588235%,10.588235%,10.196079%);fill-opacity:1;" d="M 13.121094 10.375 C 13.160156 10.445312 13.191406 10.511719 13.21875 10.585938 C 13.261719 10.679688 13.3125 10.730469 13.390625 10.796875 C 13.324219 10.832031 13.257812 10.863281 13.1875 10.894531 C 13.121094 10.820312 13.054688 10.746094 12.988281 10.667969 C 13.007812 10.65625 13.03125 10.648438 13.054688 10.636719 C 13.054688 10.613281 13.054688 10.59375 13.054688 10.570312 C 13.078125 10.570312 13.097656 10.570312 13.121094 10.570312 C 13.121094 10.507812 13.121094 10.441406 13.121094 10.375 Z M 13.121094 10.375 "/>
<path style=" stroke:none;fill-rule:nonzero;fill:rgb(8.235294%,8.235294%,7.843138%);fill-opacity:1;" d="M 16.535156 8.789062 C 16.546875 8.789062 16.558594 8.789062 16.570312 8.789062 C 16.570312 8.839844 16.570312 8.894531 16.570312 8.949219 C 16.644531 8.960938 16.722656 8.972656 16.804688 8.980469 C 16.835938 9.078125 16.835938 9.078125 16.804688 9.152344 C 16.789062 9.179688 16.789062 9.179688 16.769531 9.210938 C 16.804688 9.21875 16.835938 9.230469 16.871094 9.242188 C 16.609375 9.21875 16.609375 9.21875 16.535156 9.144531 C 16.550781 9.078125 16.550781 9.078125 16.570312 9.015625 C 16.558594 9.003906 16.546875 8.992188 16.535156 8.980469 C 16.535156 8.917969 16.535156 8.851562 16.535156 8.789062 Z M 16.535156 8.789062 "/>
<path style=" stroke:none;fill-rule:nonzero;fill:rgb(45.09804%,85.490197%,85.882354%);fill-opacity:1;" d="M 7.097656 28.210938 C 7.113281 28.222656 7.128906 28.238281 7.144531 28.25 C 7.164062 28.269531 7.183594 28.285156 7.203125 28.304688 C 7.226562 28.320312 7.246094 28.339844 7.265625 28.355469 C 7.40625 28.460938 7.515625 28.480469 7.691406 28.492188 C 7.730469 28.492188 7.769531 28.496094 7.808594 28.5 C 7.855469 28.5 7.855469 28.5 7.898438 28.503906 C 7.796875 28.570312 7.777344 28.578125 7.664062 28.574219 C 7.640625 28.574219 7.621094 28.574219 7.597656 28.574219 C 7.53125 28.566406 7.53125 28.566406 7.429688 28.535156 C 7.417969 28.558594 7.410156 28.578125 7.398438 28.601562 C 7.359375 28.578125 7.320312 28.550781 7.28125 28.527344 C 7.25 28.507812 7.25 28.507812 7.21875 28.488281 C 7.152344 28.429688 7.144531 28.390625 7.128906 28.308594 C 7.117188 28.277344 7.109375 28.246094 7.097656 28.210938 Z M 7.097656 28.210938 "/>
<path style=" stroke:none;fill-rule:nonzero;fill:rgb(11.764706%,11.372549%,10.196079%);fill-opacity:1;" d="M 4.886719 16.246094 C 4.855469 16.257812 4.820312 16.265625 4.785156 16.277344 C 4.785156 16.300781 4.785156 16.320312 4.785156 16.34375 C 4.765625 16.34375 4.742188 16.34375 4.71875 16.34375 C 4.742188 16.398438 4.765625 16.449219 4.785156 16.503906 C 4.6875 16.585938 4.6875 16.585938 4.585938 16.667969 C 4.546875 16.511719 4.546875 16.511719 4.585938 16.441406 C 4.5625 16.417969 4.542969 16.398438 4.519531 16.375 C 4.753906 16.179688 4.753906 16.179688 4.886719 16.246094 Z M 4.886719 16.246094 "/>
<path style=" stroke:none;fill-rule:nonzero;fill:rgb(10.588235%,10.980392%,10.588235%);fill-opacity:1;" d="M 24.402344 7.621094 C 24.433594 7.632812 24.46875 7.640625 24.503906 7.652344 C 24.503906 7.757812 24.503906 7.867188 24.503906 7.976562 C 24.4375 8.007812 24.4375 8.007812 24.367188 8.042969 C 24.363281 8.011719 24.359375 7.980469 24.355469 7.945312 C 24.347656 7.914062 24.34375 7.882812 24.335938 7.847656 C 24.3125 7.835938 24.289062 7.824219 24.269531 7.816406 C 24.289062 7.773438 24.3125 7.730469 24.335938 7.683594 C 24.347656 7.695312 24.355469 7.707031 24.367188 7.71875 C 24.378906 7.683594 24.390625 7.652344 24.402344 7.621094 Z M 24.402344 7.621094 "/>
<path style=" stroke:none;fill-rule:nonzero;fill:rgb(40.392157%,77.254903%,78.431374%);fill-opacity:1;" d="M 16.871094 10.960938 C 16.890625 10.980469 16.914062 11.003906 16.9375 11.023438 C 17.027344 11.035156 17.113281 11.027344 17.203125 11.023438 C 17.203125 11.035156 17.203125 11.046875 17.203125 11.058594 C 17.128906 11.058594 17.050781 11.058594 16.972656 11.058594 C 16.972656 11.085938 16.972656 11.117188 16.972656 11.148438 C 16.972656 11.1875 16.972656 11.226562 16.972656 11.265625 C 16.972656 11.304688 16.972656 11.34375 16.972656 11.382812 C 16.972656 11.480469 16.972656 11.480469 16.9375 11.511719 C 16.925781 11.585938 16.914062 11.664062 16.902344 11.738281 C 16.894531 11.738281 16.882812 11.738281 16.871094 11.738281 C 16.871094 11.480469 16.871094 11.226562 16.871094 10.960938 Z M 16.871094 10.960938 "/>
<path style=" stroke:none;fill-rule:nonzero;fill:rgb(10.588235%,13.725491%,14.117648%);fill-opacity:1;" d="M 24.066406 3.664062 C 23.953125 3.738281 23.914062 3.738281 23.78125 3.734375 C 23.75 3.734375 23.71875 3.734375 23.683594 3.734375 C 23.597656 3.730469 23.597656 3.730469 23.496094 3.695312 C 23.496094 3.71875 23.496094 3.738281 23.496094 3.761719 C 23.398438 3.746094 23.398438 3.746094 23.296875 3.730469 C 23.535156 3.605469 23.808594 3.597656 24.066406 3.664062 Z M 24.066406 3.664062 "/>
<path style=" stroke:none;fill-rule:nonzero;fill:rgb(10.980392%,12.941177%,12.54902%);fill-opacity:1;" d="M 19.28125 27.855469 C 19.246094 27.871094 19.246094 27.871094 19.214844 27.886719 C 19.214844 27.910156 19.214844 27.929688 19.214844 27.953125 C 19.234375 27.960938 19.257812 27.972656 19.28125 27.984375 C 19.269531 28.003906 19.257812 28.027344 19.246094 28.050781 C 19.167969 28.039062 19.09375 28.027344 19.011719 28.015625 C 19.011719 27.996094 19.011719 27.972656 19.011719 27.953125 C 18.992188 27.949219 18.96875 27.945312 18.949219 27.941406 C 18.925781 27.933594 18.902344 27.925781 18.878906 27.917969 C 18.867188 27.898438 18.855469 27.875 18.84375 27.855469 C 19 27.8125 19.125 27.832031 19.28125 27.855469 Z M 19.28125 27.855469 "/>
<path style=" stroke:none;fill-rule:nonzero;fill:rgb(6.666667%,5.882353%,5.882353%);fill-opacity:1;" d="M 8.636719 27.820312 C 8.636719 27.855469 8.636719 27.886719 8.636719 27.917969 C 8.699219 27.984375 8.699219 27.984375 8.769531 28.015625 C 8.691406 28.070312 8.613281 28.125 8.535156 28.179688 C 8.511719 28.167969 8.492188 28.15625 8.46875 28.144531 C 8.46875 28.113281 8.46875 28.082031 8.46875 28.050781 C 8.445312 28.050781 8.425781 28.050781 8.402344 28.050781 C 8.445312 27.917969 8.519531 27.890625 8.636719 27.820312 Z M 8.636719 27.820312 "/>
<path style=" stroke:none;fill-rule:nonzero;fill:rgb(11.372549%,11.372549%,10.980392%);fill-opacity:1;" d="M 6.929688 27.726562 C 6.996094 27.820312 6.996094 27.820312 7.027344 27.890625 C 7.0625 27.957031 7.0625 27.957031 7.128906 28.015625 C 7.140625 28.070312 7.152344 28.125 7.164062 28.179688 C 7.183594 28.199219 7.207031 28.222656 7.230469 28.242188 C 7.195312 28.242188 7.164062 28.242188 7.128906 28.242188 C 7.121094 28.222656 7.113281 28.203125 7.105469 28.183594 C 7.070312 28.109375 7.070312 28.109375 6.992188 28.082031 C 6.929688 28.050781 6.929688 28.050781 6.902344 27.992188 C 6.894531 27.898438 6.910156 27.816406 6.929688 27.726562 Z M 6.929688 27.726562 "/>
<path style=" stroke:none;fill-rule:nonzero;fill:rgb(46.666667%,89.019608%,89.803922%);fill-opacity:1;" d="M 14.09375 8.300781 C 14.121094 8.394531 14.125 8.460938 14.125 8.5625 C 14.113281 8.539062 14.101562 8.519531 14.09375 8.496094 C 13.878906 8.644531 13.878906 8.644531 13.691406 8.820312 C 13.667969 8.808594 13.644531 8.796875 13.625 8.789062 C 13.644531 8.769531 13.664062 8.75 13.683594 8.730469 C 13.828125 8.59375 13.964844 8.453125 14.09375 8.300781 Z M 14.09375 8.300781 "/>
<path style=" stroke:none;fill-rule:nonzero;fill:rgb(6.27451%,6.666667%,6.666667%);fill-opacity:1;" d="M 14.828125 10.539062 C 14.875 10.558594 14.917969 10.582031 14.960938 10.605469 C 14.996094 10.613281 15.027344 10.625 15.0625 10.636719 C 14.84375 10.734375 14.84375 10.734375 14.695312 10.734375 C 14.671875 10.667969 14.648438 10.605469 14.628906 10.539062 C 14.714844 10.496094 14.738281 10.511719 14.828125 10.539062 Z M 14.828125 10.539062 "/>
<path style=" stroke:none;fill-rule:nonzero;fill:rgb(10.196079%,12.941177%,13.333334%);fill-opacity:1;" d="M 27.246094 16.34375 C 27.347656 16.429688 27.40625 16.511719 27.421875 16.644531 C 27.421875 16.667969 27.421875 16.695312 27.421875 16.71875 C 27.421875 16.746094 27.421875 16.769531 27.421875 16.796875 C 27.414062 16.863281 27.414062 16.863281 27.347656 16.925781 C 27.3125 16.894531 27.3125 16.894531 27.3125 16.820312 C 27.3125 16.773438 27.3125 16.773438 27.316406 16.726562 C 27.316406 16.585938 27.304688 16.472656 27.246094 16.34375 Z M 27.246094 16.34375 "/>
<path style=" stroke:none;fill-rule:nonzero;fill:rgb(6.27451%,5.882353%,5.490196%);fill-opacity:1;" d="M 7.664062 26.296875 C 7.6875 26.308594 7.710938 26.320312 7.730469 26.332031 C 7.722656 26.339844 7.710938 26.351562 7.699219 26.363281 C 7.800781 26.394531 7.863281 26.394531 7.964844 26.363281 C 7.886719 26.449219 7.800781 26.503906 7.699219 26.558594 C 7.675781 26.558594 7.65625 26.558594 7.632812 26.558594 C 7.632812 26.515625 7.632812 26.472656 7.632812 26.429688 C 7.597656 26.417969 7.566406 26.40625 7.53125 26.394531 C 7.574219 26.363281 7.621094 26.332031 7.664062 26.296875 Z M 7.664062 26.296875 "/>
<path style=" stroke:none;fill-rule:nonzero;fill:rgb(39.215687%,73.333335%,74.117649%);fill-opacity:1;" d="M 25.003906 11.382812 C 25.039062 11.382812 25.070312 11.382812 25.105469 11.382812 C 25.105469 11.597656 25.105469 11.808594 25.105469 12.03125 C 25.09375 12.03125 25.082031 12.03125 25.070312 12.03125 C 25.058594 11.976562 25.050781 11.921875 25.039062 11.867188 C 25.027344 11.867188 25.015625 11.867188 25.003906 11.867188 C 25.003906 11.707031 25.003906 11.546875 25.003906 11.382812 Z M 25.003906 11.382812 "/>
<path style=" stroke:none;fill-rule:nonzero;fill:rgb(12.54902%,12.941177%,12.54902%);fill-opacity:1;" d="M 21.15625 19.328125 C 21.375 19.316406 21.375 19.316406 21.488281 19.390625 C 21.398438 19.421875 21.347656 19.425781 21.253906 19.425781 C 21.21875 19.425781 21.21875 19.425781 21.179688 19.425781 C 21.152344 19.425781 21.125 19.425781 21.097656 19.425781 C 21.070312 19.425781 21.046875 19.425781 21.015625 19.425781 C 20.953125 19.425781 20.886719 19.425781 20.820312 19.421875 C 20.808594 19.457031 20.796875 19.488281 20.785156 19.519531 C 20.785156 19.476562 20.785156 19.433594 20.785156 19.390625 C 20.96875 19.375 20.96875 19.375 21.15625 19.359375 C 21.15625 19.347656 21.15625 19.335938 21.15625 19.328125 Z M 21.15625 19.328125 "/>
<path style=" stroke:none;fill-rule:nonzero;fill:rgb(6.666667%,5.882353%,5.490196%);fill-opacity:1;" d="M 19.011719 27.917969 C 19.035156 27.929688 19.058594 27.941406 19.078125 27.953125 C 19.070312 27.960938 19.058594 27.972656 19.046875 27.984375 C 19.089844 28.003906 19.132812 28.027344 19.179688 28.050781 C 19.117188 28.066406 19.054688 28.082031 18.992188 28.097656 C 18.957031 28.105469 18.921875 28.117188 18.886719 28.125 C 18.78125 28.144531 18.683594 28.148438 18.578125 28.144531 C 18.695312 28.082031 18.816406 28.050781 18.945312 28.015625 C 18.945312 27.996094 18.945312 27.972656 18.945312 27.953125 C 18.96875 27.941406 18.988281 27.929688 19.011719 27.917969 Z M 19.011719 27.917969 "/>
<path style=" stroke:none;fill-rule:nonzero;fill:rgb(11.764706%,10.980392%,10.588235%);fill-opacity:1;" d="M 7.363281 27.464844 C 7.460938 27.460938 7.460938 27.460938 7.566406 27.464844 C 7.585938 27.496094 7.609375 27.53125 7.632812 27.5625 C 7.519531 27.605469 7.410156 27.648438 7.296875 27.691406 C 7.320312 27.617188 7.339844 27.542969 7.363281 27.464844 Z M 7.363281 27.464844 "/>
<path style=" stroke:none;fill-rule:nonzero;fill:rgb(9.019608%,9.411765%,8.627451%);fill-opacity:1;" d="M 15.632812 10.410156 C 15.753906 10.398438 15.753906 10.398438 15.867188 10.410156 C 15.878906 10.441406 15.886719 10.472656 15.898438 10.507812 C 15.769531 10.566406 15.671875 10.578125 15.53125 10.570312 C 15.566406 10.488281 15.566406 10.488281 15.632812 10.410156 Z M 15.632812 10.410156 "/>
<path style=" stroke:none;fill-rule:nonzero;fill:rgb(7.058824%,6.666667%,6.27451%);fill-opacity:1;" d="M 5.589844 4.929688 C 5.613281 4.941406 5.632812 4.949219 5.65625 4.960938 C 5.636719 4.980469 5.636719 4.980469 5.613281 5 C 5.546875 5.066406 5.503906 5.140625 5.457031 5.222656 C 5.410156 5.285156 5.367188 5.351562 5.320312 5.414062 C 5.3125 5.382812 5.300781 5.351562 5.289062 5.316406 C 5.335938 5.238281 5.335938 5.238281 5.398438 5.152344 C 5.421875 5.125 5.441406 5.097656 5.464844 5.066406 C 5.523438 4.992188 5.523438 4.992188 5.589844 4.929688 Z M 5.589844 4.929688 "/>
<path style=" stroke:none;fill-rule:nonzero;fill:rgb(46.666667%,90.196079%,90.980393%);fill-opacity:1;" d="M 24.738281 27.464844 C 24.746094 27.464844 24.757812 27.464844 24.769531 27.464844 C 24.78125 27.550781 24.792969 27.636719 24.804688 27.726562 C 24.78125 27.726562 24.757812 27.726562 24.738281 27.726562 C 24.734375 27.75 24.730469 27.773438 24.730469 27.796875 C 24.695312 27.914062 24.628906 27.96875 24.535156 28.050781 C 24.546875 28.03125 24.554688 28.011719 24.566406 27.992188 C 24.648438 27.828125 24.707031 27.648438 24.738281 27.464844 Z M 24.738281 27.464844 "/>
<path style=" stroke:none;fill-rule:nonzero;fill:rgb(93.725491%,87.058824%,69.803923%);fill-opacity:1;" d="M 24.46875 27.660156 C 24.417969 27.8125 24.417969 27.8125 24.332031 27.863281 C 24.300781 27.875 24.300781 27.875 24.269531 27.886719 C 24.257812 27.824219 24.246094 27.757812 24.234375 27.691406 C 24.394531 27.660156 24.394531 27.660156 24.46875 27.660156 Z M 24.46875 27.660156 "/>
<path style=" stroke:none;fill-rule:nonzero;fill:rgb(41.176471%,78.823531%,79.215688%);fill-opacity:1;" d="M 19.613281 23.316406 C 19.613281 23.347656 19.613281 23.378906 19.613281 23.414062 C 19.492188 23.421875 19.371094 23.433594 19.246094 23.445312 C 19.257812 23.414062 19.269531 23.378906 19.28125 23.347656 C 19.394531 23.328125 19.496094 23.316406 19.613281 23.316406 Z M 19.613281 23.316406 "/>
<path style=" stroke:none;fill-rule:nonzero;fill:rgb(10.588235%,11.764706%,12.156863%);fill-opacity:1;" d="M 24.636719 27.207031 C 24.695312 27.296875 24.703125 27.332031 24.691406 27.441406 C 24.683594 27.46875 24.675781 27.5 24.667969 27.53125 C 24.648438 27.53125 24.625 27.53125 24.601562 27.53125 C 24.582031 27.574219 24.558594 27.617188 24.535156 27.660156 C 24.554688 27.503906 24.589844 27.359375 24.636719 27.207031 Z M 24.636719 27.207031 "/>
<path style=" stroke:none;fill-rule:nonzero;fill:rgb(14.117648%,13.725491%,12.156863%);fill-opacity:1;" d="M 15.261719 10.410156 C 15.273438 10.453125 15.285156 10.496094 15.296875 10.539062 C 15.242188 10.550781 15.1875 10.558594 15.128906 10.570312 C 15.140625 10.550781 15.152344 10.527344 15.164062 10.507812 C 15.082031 10.472656 15.082031 10.472656 14.996094 10.441406 C 15.097656 10.382812 15.148438 10.371094 15.261719 10.410156 Z M 15.261719 10.410156 "/>
<path style=" stroke:none;fill-rule:nonzero;fill:rgb(10.196079%,12.941177%,12.941177%);fill-opacity:1;" d="M 24.367188 5.382812 C 24.390625 5.394531 24.414062 5.402344 24.433594 5.414062 C 24.4375 5.523438 24.4375 5.523438 24.433594 5.640625 C 24.414062 5.664062 24.390625 5.683594 24.367188 5.707031 C 24.335938 5.675781 24.335938 5.675781 24.332031 5.617188 C 24.332031 5.59375 24.332031 5.570312 24.332031 5.546875 C 24.332031 5.523438 24.332031 5.5 24.332031 5.472656 C 24.335938 5.414062 24.335938 5.414062 24.367188 5.382812 Z M 24.367188 5.382812 "/>
<path style=" stroke:none;fill-rule:nonzero;fill:rgb(11.764706%,12.54902%,12.156863%);fill-opacity:1;" d="M 17.875 9.859375 C 17.90625 9.859375 17.941406 9.859375 17.976562 9.859375 C 17.964844 9.941406 17.953125 10.027344 17.941406 10.117188 C 17.917969 10.105469 17.898438 10.097656 17.875 10.085938 C 17.851562 10.128906 17.832031 10.171875 17.808594 10.214844 C 17.796875 9.972656 17.796875 9.972656 17.875 9.859375 Z M 17.875 9.859375 "/>
<path style=" stroke:none;fill-rule:nonzero;fill:rgb(44.313726%,85.882354%,86.274511%);fill-opacity:1;" d="M 17.839844 10.570312 C 17.851562 10.59375 17.863281 10.613281 17.875 10.636719 C 17.808594 10.710938 17.742188 10.785156 17.671875 10.863281 C 17.640625 10.851562 17.605469 10.839844 17.574219 10.832031 C 17.660156 10.746094 17.75 10.660156 17.839844 10.570312 Z M 17.839844 10.570312 "/>
<path style=" stroke:none;fill-rule:nonzero;fill:rgb(40.784314%,76.862746%,77.64706%);fill-opacity:1;" d="M 16.859375 28.046875 C 16.902344 28.046875 16.902344 28.046875 16.941406 28.046875 C 16.972656 28.046875 16.972656 28.046875 17.003906 28.050781 C 16.972656 28.097656 16.972656 28.097656 16.9375 28.144531 C 16.875 28.160156 16.875 28.160156 16.804688 28.15625 C 16.78125 28.15625 16.757812 28.15625 16.730469 28.15625 C 16.667969 28.144531 16.667969 28.144531 16.601562 28.082031 C 16.699219 28.050781 16.761719 28.046875 16.859375 28.046875 Z M 16.859375 28.046875 "/>
<path style=" stroke:none;fill-rule:nonzero;fill:rgb(11.372549%,14.901961%,14.901961%);fill-opacity:1;" d="M 19.144531 15.078125 C 19.15625 15.101562 19.167969 15.121094 19.179688 15.144531 C 19.023438 15.175781 18.902344 15.171875 18.746094 15.144531 C 18.746094 15.132812 18.746094 15.121094 18.746094 15.109375 C 18.878906 15.089844 19.007812 15.074219 19.144531 15.078125 Z M 19.144531 15.078125 "/>
<path style=" stroke:none;fill-rule:nonzero;fill:rgb(10.196079%,10.588235%,10.588235%);fill-opacity:1;" d="M 23.730469 27.171875 C 23.8125 27.183594 23.8125 27.183594 23.898438 27.207031 C 23.945312 27.273438 23.945312 27.273438 23.964844 27.335938 C 23.921875 27.3125 23.878906 27.292969 23.832031 27.269531 C 23.820312 27.292969 23.808594 27.3125 23.800781 27.335938 C 23.777344 27.3125 23.753906 27.292969 23.730469 27.269531 C 23.730469 27.238281 23.730469 27.207031 23.730469 27.171875 Z M 23.730469 27.171875 "/>
<path style=" stroke:none;fill-rule:nonzero;fill:rgb(44.313726%,85.490197%,86.274511%);fill-opacity:1;" d="M 25.003906 23.414062 C 25.027344 23.421875 25.046875 23.433594 25.070312 23.445312 C 25.054688 23.492188 25.039062 23.539062 25.023438 23.589844 C 25.015625 23.613281 25.007812 23.640625 25 23.667969 C 24.972656 23.738281 24.972656 23.738281 24.902344 23.769531 C 24.917969 23.636719 24.933594 23.527344 25.003906 23.414062 Z M 25.003906 23.414062 "/>
<path style=" stroke:none;fill-rule:nonzero;fill:rgb(5.882353%,4.705882%,4.313726%);fill-opacity:1;" d="M 16.535156 8.789062 C 16.546875 8.789062 16.558594 8.789062 16.570312 8.789062 C 16.570312 8.839844 16.570312 8.894531 16.570312 8.949219 C 16.625 8.960938 16.679688 8.972656 16.738281 8.980469 C 16.703125 8.992188 16.671875 9.003906 16.636719 9.015625 C 16.636719 9.046875 16.636719 9.078125 16.636719 9.113281 C 16.601562 9.113281 16.570312 9.113281 16.535156 9.113281 C 16.535156 9.003906 16.535156 8.894531 16.535156 8.789062 Z M 16.535156 8.789062 "/>
<path style=" stroke:none;fill-rule:nonzero;fill:rgb(98.039216%,89.411765%,70.588237%);fill-opacity:1;" d="M 26.84375 16.570312 C 26.914062 16.570312 26.980469 16.570312 27.046875 16.570312 C 27.078125 16.601562 27.078125 16.601562 27.082031 16.6875 C 27.082031 16.710938 27.082031 16.738281 27.078125 16.765625 C 27.039062 16.738281 27 16.710938 26.960938 16.6875 C 26.941406 16.671875 26.917969 16.65625 26.894531 16.640625 C 26.878906 16.628906 26.863281 16.617188 26.84375 16.601562 C 26.84375 16.59375 26.84375 16.582031 26.84375 16.570312 Z M 26.84375 16.570312 "/>
<path style=" stroke:none;fill-rule:nonzero;fill:rgb(41.568628%,78.039217%,79.215688%);fill-opacity:1;" d="M 17.039062 2.398438 C 17.113281 2.398438 17.191406 2.398438 17.273438 2.398438 C 17.28125 2.433594 17.292969 2.464844 17.304688 2.496094 C 17.207031 2.496094 17.105469 2.496094 17.003906 2.496094 C 17.015625 2.464844 17.027344 2.433594 17.039062 2.398438 Z M 17.039062 2.398438 "/>
<path style=" stroke:none;fill-rule:nonzero;fill:rgb(16.470589%,16.078432%,16.078432%);fill-opacity:1;" d="M 9.40625 19.359375 C 9.417969 19.359375 9.429688 19.359375 9.4375 19.359375 C 9.460938 19.488281 9.484375 19.617188 9.507812 19.746094 C 9.472656 19.746094 9.441406 19.746094 9.40625 19.746094 C 9.40625 19.621094 9.40625 19.492188 9.40625 19.359375 Z M 9.40625 19.359375 "/>
<path style=" stroke:none;fill-rule:nonzero;fill:rgb(10.196079%,11.764706%,11.764706%);fill-opacity:1;" d="M 4.453125 17.511719 C 4.484375 17.519531 4.519531 17.53125 4.550781 17.542969 C 4.574219 17.621094 4.574219 17.621094 4.585938 17.703125 C 4.5625 17.726562 4.542969 17.746094 4.519531 17.769531 C 4.476562 17.675781 4.453125 17.613281 4.453125 17.511719 Z M 4.453125 17.511719 "/>
<path style=" stroke:none;fill-rule:nonzero;fill:rgb(12.54902%,11.372549%,10.980392%);fill-opacity:1;" d="M 15.0625 10.472656 C 14.957031 10.542969 14.886719 10.554688 14.761719 10.570312 C 14.761719 10.539062 14.761719 10.507812 14.761719 10.472656 C 14.871094 10.4375 14.949219 10.445312 15.0625 10.472656 Z M 15.0625 10.472656 "/>
<path style=" stroke:none;fill-rule:nonzero;fill:rgb(9.803922%,11.764706%,11.764706%);fill-opacity:1;" d="M 17.808594 9.695312 C 17.839844 9.695312 17.875 9.695312 17.90625 9.695312 C 17.917969 9.738281 17.929688 9.78125 17.941406 9.824219 C 17.875 9.835938 17.808594 9.847656 17.742188 9.859375 C 17.761719 9.804688 17.785156 9.75 17.808594 9.695312 Z M 17.808594 9.695312 "/>
<path style=" stroke:none;fill-rule:nonzero;fill:rgb(6.27451%,5.882353%,5.882353%);fill-opacity:1;" d="M 8.199219 26.234375 C 8.277344 26.238281 8.277344 26.238281 8.367188 26.265625 C 8.429688 26.347656 8.429688 26.347656 8.46875 26.429688 C 8.378906 26.382812 8.289062 26.339844 8.199219 26.296875 C 8.199219 26.277344 8.199219 26.253906 8.199219 26.234375 Z M 8.199219 26.234375 "/>
<path style=" stroke:none;fill-rule:nonzero;fill:rgb(10.588235%,12.941177%,12.54902%);fill-opacity:1;" d="M 17.574219 2.367188 C 17.660156 2.378906 17.75 2.386719 17.839844 2.398438 C 17.773438 2.464844 17.773438 2.464844 17.6875 2.46875 C 17.660156 2.46875 17.632812 2.464844 17.605469 2.464844 C 17.59375 2.433594 17.585938 2.398438 17.574219 2.367188 Z M 17.574219 2.367188 "/>
</g>
</svg>
